<?xml version="1.0" encoding="UTF-8"?><svg id="Layer_1" xmlns="http://www.w3.org/2000/svg" viewBox="0 0 841.89 595.28"><defs><style>.cls-1{stroke:#f5833a;}.cls-1,.cls-2,.cls-3{fill:none;stroke-miterlimit:10;}.cls-4{fill:#29589d;}.cls-2{stroke:#5982c0;}.cls-3{stroke:#29589d;stroke-width:3px;}.cls-5{fill:#f5833a;}</style></defs><path class="cls-2" d="M463.38,110.52c-2.32,8.42-4.38,15.61-5.27,23.08-2.22,18.75,4.03,34.83,15.03,49.6,9.92,13.32,20.31,26.44,24.09,43.22,6.13,27.22-1.04,50.46-22.8,67.8-22.01,17.55-46.84,19.73-71.66,6.57-24.47-12.97-36.13-34.73-33.97-62.13,3.15-39.94,22.71-72.16,51.16-99.37,12.41-11.87,26.59-21.26,43.42-28.77Zm22.52,125.06c-7.66,36.49-30.01,55.68-66.98,58.44,19.71,5.09,37.33,1.31,51.98-12.98,12.79-12.48,17.7-27.89,15-45.46Z"/><path class="cls-4" d="M438.96,88.44c-2.32,8.42-4.38,15.61-5.27,23.08-2.22,18.75,4.03,34.83,15.03,49.6,9.92,13.32,20.31,26.44,24.09,43.22,6.13,27.22-1.04,50.46-22.8,67.8-22.01,17.55-46.84,19.73-71.66,6.57-24.47-12.97-36.13-34.73-33.97-62.13,3.15-39.94,22.71-72.16,51.16-99.37,12.41-11.87,26.59-21.26,43.42-28.77Zm22.52,125.06c-7.66,36.49-30.01,55.68-66.98,58.44,19.71,5.09,37.33,1.31,51.98-12.98,12.79-12.48,17.7-27.89,15-45.46Z"/><g><path class="cls-1" d="M410.13,415.44c0,12.3-1.82,24.17-5.21,35.37-81.8-7.34-148-68.83-162.5-148.36,14.14-5.75,29.6-8.91,45.82-8.91,67.32,0,121.89,54.59,121.89,121.91Z"/><path class="cls-1" d="M599.46,306.95h0c-16.44,78.82-83.86,138.91-166.21,144.21-2.85-10.32-4.36-21.19-4.36-32.41,0-67.32,54.57-121.91,121.91-121.91,17.3,0,33.76,3.61,48.66,10.11Z"/><path class="cls-1" d="M410.13,415.44c0,12.3-1.82,24.17-5.21,35.37-81.8-7.34-148-68.83-162.5-148.36,14.14-5.75,29.6-8.91,45.82-8.91,67.32,0,121.89,54.59,121.89,121.91Z"/><path class="cls-1" d="M599.46,306.95h0c-16.44,78.82-83.86,138.91-166.21,144.21-2.85-10.32-4.36-21.19-4.36-32.41,0-67.32,54.57-121.91,121.91-121.91,17.3,0,33.76,3.61,48.66,10.11Z"/></g><g><path class="cls-5" d="M410.13,447.85c0,12.3-1.82,24.17-5.21,35.37-81.8-7.34-148-68.83-162.5-148.36,14.14-5.75,29.6-8.91,45.82-8.91,67.32,0,121.89,54.59,121.89,121.91Z"/><path class="cls-5" d="M599.46,339.36h0c-16.44,78.82-83.86,138.91-166.21,144.21-2.85-10.32-4.36-21.19-4.36-32.41,0-67.32,54.57-121.91,121.91-121.91,17.3,0,33.76,3.61,48.66,10.11Z"/><path class="cls-5" d="M410.13,447.85c0,12.3-1.82,24.17-5.21,35.37-81.8-7.34-148-68.83-162.5-148.36,14.14-5.75,29.6-8.91,45.82-8.91,67.32,0,121.89,54.59,121.89,121.91Z"/><path class="cls-5" d="M599.46,339.36h0c-16.44,78.82-83.86,138.91-166.21,144.21-2.85-10.32-4.36-21.19-4.36-32.41,0-67.32,54.57-121.91,121.91-121.91,17.3,0,33.76,3.61,48.66,10.11Z"/></g><circle class="cls-3" cx="420.94" cy="297.64" r="221.32"/></svg>