<?xml version="1.0" encoding="UTF-8"?><svg id="Layer_1" xmlns="http://www.w3.org/2000/svg" viewBox="0 0 841.89 595.28"><defs><style>.cls-1{fill:#231f20;}.cls-2{fill:#f5833a;}</style></defs><g><path class="cls-2" d="M120.4,394.84c-1.05,0-1.7-.07-1.94-.21l-.97-.32c-1.3,0-2.63-.2-4.01-.59-1.38-.39-2.39-.8-3.04-1.22l-3.64-2.34c-.97-.57-1.74-1.14-2.31-1.7-.97-.92-2.19-2.7-3.64-5.33l-.97-1.6c-.41-.43-.89-1.42-1.46-2.98-1.7-4.4-2.55-9.76-2.55-16.09v-5.43c.08-2.91,.69-6.53,1.82-10.87,.49-2.06,.73-3.3,.73-3.73,0-.5-.28-.96-.85-1.38-.57-.64-.85-1.08-.85-1.33s-.2-.59-.61-1.01-.61-1.03-.61-1.81c0-.5,.4-.99,1.21-1.49l5.71-2.56c1.78-3.62,3.08-6.07,3.89-7.35l.97-1.81,.36-1.17c.24-.71,2.07-4.05,5.47-10.01,.97-1.49,1.94-3.23,2.92-5.22,.57-.99,.91-1.49,1.03-1.49s.22-.05,.3-.16c.08-.11,.12-.27,.12-.48s.14-.41,.42-.59c.28-.18,.75-.91,1.4-2.18,1.46-2.63,4.25-6.67,8.38-12.14,1.22-1.63,2.63-3.44,4.25-5.43,3.48-4.47,5.87-7.39,7.17-8.74l.12-.21c.97-.99,1.46-1.56,1.46-1.7,0-.07-.08-.11-.24-.11l-.49,.11c-.24,.07-.49,.14-.73,.21-.24,.07-.43,.14-.55,.21-.12,.07-.49,.21-1.09,.43s-1.28,.39-2,.53c-1.38,.36-3.14,.85-5.28,1.49-2.15,.64-4.11,1.24-5.89,1.81-1.78,.57-2.75,.91-2.92,1.01-.16,.11-.55,.27-1.15,.48-.61,.21-1.34,.48-2.19,.8-.85,.32-1.74,.66-2.67,1.01-.93,.36-1.68,.66-2.25,.91-.57,.25-1.07,.44-1.52,.59-.45,.14-.71,.21-.79,.21s-.81,.27-2.19,.8c-1.38,.53-2.96,1.15-4.74,1.86-1.78,.71-3.44,1.38-4.98,2.02-.97,.43-1.72,.73-2.25,.91-.53,.18-.89,.3-1.09,.37-.2,.07-.35,.11-.42,.11l-.24-.11c-.08,0-.18,.04-.3,.11-.12,.07-.32,.16-.61,.27-.28,.11-.59,.16-.91,.16-.81,0-1.42-.64-1.82-1.92-.24-.85-.49-1.28-.73-1.28h-.12c-.24,0-.43-.16-.55-.48-.12-.32-.18-1.26-.18-2.82,0-1.21,.08-1.92,.24-2.13,.24-.64,5.79-2.63,16.64-5.96,7.37-2.34,11.14-3.52,11.3-3.52s1.7-.43,4.62-1.28c1.86-.64,5.67-1.74,11.42-3.3l4.98-1.39c5.1-1.28,8.1-1.99,8.99-2.13,1.7-.5,5.71-1.38,12.03-2.66,8.42-1.7,13.85-2.73,16.28-3.09,.65-.07,1.35-.18,2.13-.32,.77-.14,1.38-.25,1.82-.32,.45-.07,1.09-.18,1.94-.32,.85-.14,1.68-.25,2.49-.32,5.35-.85,9.96-1.42,13.85-1.7l10.81-1.28,19.68-1.6,7.77-.43,10.81-.85,5.83-.11c1.05,0,1.58-.04,1.58-.11s.06-.14,.18-.21c.12-.07,.26-.11,.42-.11,.08,0,.16,.02,.24,.05,.08,.04,.16,.23,.24,.59,.08,0,.18-.09,.3-.27,.12-.18,.38-.3,.79-.37l1.7,.11c1.94,.21,2.92,.68,2.92,1.39l-.12,.32c0,.14,.02,.28,.06,.43,.04,.14,.2,.25,.49,.32,.28,.07,.42,.28,.42,.64,0,.07-.04,.16-.12,.27-.08,.11-.24,.16-.49,.16s-.37,.07-.37,.21c0,.36,.22,.64,.67,.85,.44,.21,.71,.53,.79,.96,0,.5-.12,.87-.36,1.12-.24,.25-.49,.37-.73,.37l-.24-.11h-.12c-.08,.07-.16,.14-.24,.21-.08,.07-.59,.16-1.52,.27-.93,.11-2.09,.2-3.46,.27l-11.78,.75c-2.03,.14-4.09,.25-6.2,.32-4.37,.28-6.88,.43-7.53,.43-1.05,0-1.58-.03-1.58-.11v-.11l.36-.64c-.08-.07-.32-.11-.73-.11s-.61,.07-.61,.21v.32c0,.36-.2,.57-.61,.64h-.73c-.16-.07-.36-.11-.61-.11-.16,0-.35,.05-.55,.16-.2,.11-.75,.21-1.64,.32-.89,.11-1.88,.18-2.98,.21-1.09,.04-2.09,.05-2.98,.05-.81,0-1.21-.07-1.21-.21l.61-.21c.4-.07,1.86-.28,4.37-.64l-3.16,.11c-1.86,0-2.98,.09-3.34,.27-.36,.18-.55,.41-.55,.69s-.33,.53-.97,.75c-.73,0-1.09-.18-1.09-.53v-.21c.08-.14,.34-.21,.79-.21s.67-.07,.67-.21-.18-.37-.55-.69c-.36-.32-.79-.48-1.28-.48-.24,0-.51,.02-.79,.05-.28,.04-.42,.09-.42,.16v.11c0,.07,.06,.16,.18,.27,.12,.11,.18,.2,.18,.27,0,.36-.93,.6-2.79,.75-2.19,.14-3.28,.36-3.28,.64v.64c-.08,.14-.16,.21-.24,.21-.16,0-.26-.05-.3-.16-.04-.11-.06-.27-.06-.48s-.24-.32-.73-.32-.73,.11-.73,.32,.12,.32,.36,.32,.36,.11,.36,.32c0,.14-.04,.21-.12,.21l-.49-.21h-.12c-.08,.07-.16,.16-.24,.27-.08,.11-.32,.21-.73,.32-.41,.11-.89,.2-1.46,.27-.57,.07-1.01,.11-1.34,.11-.49,0-.73-.14-.73-.43s.08-.43,.24-.43h.85c.16-.07,.49-.18,.97-.32,.49-.14,.73-.28,.73-.43,0-.07-.08-.11-.24-.11-.08,0-.22,.02-.42,.05-.2,.04-.71,.11-1.52,.21-.81,.11-1.74,.21-2.79,.32-1.05,.11-1.94,.23-2.67,.37-.73,.14-1.14,.25-1.22,.32,0,.07,.12,.11,.36,.11,.32,0,.75-.03,1.28-.11,.53-.07,1.05-.14,1.58-.21,.53-.07,.99-.14,1.4-.21,.57,0,.85,.07,.85,.21,0,.64-1.18,1-3.52,1.07-1.22,0-2.06,.11-2.55,.32-.08,.07-.41,.14-.97,.21l-5.1,.53c-.73,.21-1.66,.39-2.79,.53-2.67,.36-4.82,.68-6.44,.96l-3.28,.43c-1.78,.36-2.96,.53-3.52,.53-.24,0-.37-.04-.37-.11s.08-.25,.24-.53c.16-.28,.24-.5,.24-.64h-.12c-.08,0-.33,.36-.73,1.07-.16,.64-.63,.96-1.4,.96s-2.57,.36-5.41,1.07c-.65,.14-1.05,.21-1.22,.21s-.89,.28-2.19,.85c-.57,.28-1.03,.52-1.4,.69-.36,.18-.55,.36-.55,.53s-.49,.69-1.46,1.54c-.49,.43-1.07,.98-1.76,1.65-.69,.68-1.58,1.54-2.67,2.61s-2.21,2.15-3.34,3.25c-1.14,1.1-2.43,2.61-3.89,4.53-1.78,2.06-3.24,3.87-4.37,5.43-1.62,1.99-3.36,4.33-5.22,7.03-3.4,4.47-5.31,7.07-5.71,7.78-.81,1.07-1.3,1.6-1.46,1.6s-.24,.04-.24,.11v.11c0,.71-.85,2.2-2.55,4.47-.32,.5-.49,.76-.49,.8,0,.04-.06,.2-.18,.48-.12,.28-.3,.6-.55,.96-.24,.36-.59,.89-1.03,1.6-.45,.71-.87,1.46-1.28,2.24-.41,.78-.97,1.74-1.7,2.88-1.7,2.84-2.84,4.87-3.4,6.07l-.61,1.17c.16,0,2.35-.67,6.56-2.02,.81-.21,1.34-.35,1.58-.43,.24-.07,.53-.14,.85-.21,.32-.07,.59-.16,.79-.27,.2-.11,.73-.3,1.58-.59,.85-.28,1.84-.6,2.98-.96,4.21-1.21,6.96-2.27,8.26-3.2,.73-.43,1.26-.64,1.58-.64s.49,.23,.49,.69,.14,.69,.42,.69,.67,.6,1.15,1.81l.12,.21c0,.07-.16,.55-.49,1.44-.32,.89-.79,1.58-1.4,2.08-.61,.5-1.52,1.03-2.73,1.6-1.22,.57-2.31,1-3.28,1.28-.57,.14-.97,.32-1.22,.53-.65,.29-2.27,.85-4.86,1.7-10.61,3.55-16.32,5.75-17.13,6.6-.41,.57-1.07,2.01-2,4.31-.93,2.31-1.72,4.56-2.37,6.76-1.7,5.61-2.55,12.07-2.55,19.39,0,4.12,.16,7.23,.49,9.32,.32,2.1,.97,4.07,1.94,5.91l1.34,2.45,2.43,.85c1.78,.5,4.29,.75,7.53,.75,3.81,0,7.9-.96,12.27-2.88,1.78-.78,4.01-2.02,6.68-3.73l4.01-2.34c.65-.43,1.46-1.07,2.43-1.92l1.34-1.17c.16,0,.81-.5,1.94-1.49,1.13-.99,1.84-1.49,2.13-1.49s.43-.09,.43-.27,.89-1.15,2.67-2.93l13.61-13.21c2.19-2.2,3.64-3.73,4.37-4.58l5.71-6.5c2.27-2.56,4.25-4.86,5.95-6.92,.81-.99,1.58-1.9,2.31-2.72,.73-.82,1.23-1.35,1.52-1.6,.28-.25,.73-.73,1.34-1.44,.61-.71,1.23-1.45,1.88-2.24,1.94-2.34,3.04-3.62,3.28-3.84,.57-.64,.85-1.03,.85-1.17s.04-.21,.12-.21,.22,.07,.43,.21c.2,.14,.3,.36,.3,.64,0,.57-.57,1.53-1.7,2.88-.32,.5-.61,.92-.85,1.28-.24,.36-.36,.6-.36,.75l.36-.32c.16-.14,.36-.43,.61-.85,.81-1.07,1.34-1.6,1.58-1.6,.08,0,.12,.11,.12,.32,0,.29-.65,1.39-1.94,3.3-3.56,4.97-6.48,8.67-8.75,11.08-.81,.92-1.86,2.34-3.16,4.26-.32,.36-.59,.55-.79,.59-.2,.04-.36,.07-.49,.11-.12,.04-.38,.16-.79,.37-1.14,.78-1.7,1.32-1.7,1.6s-.2,.6-.61,.96c-.41,.36-.99,1.07-1.76,2.13s-1.15,1.74-1.15,2.02c.08,0,.42-.34,1.03-1.01,.61-.67,1.26-1.46,1.94-2.34,.69-.89,1.15-1.33,1.4-1.33,.16,0,.24,.14,.24,.43,0,.21-.57,1.07-1.7,2.56-2.27,3.05-5.1,6.39-8.5,10.01-1.7,1.85-2.55,2.89-2.55,3.14s-1.15,1.56-3.46,3.94c-2.31,2.38-3.58,3.57-3.83,3.57s-1.17,.78-2.79,2.34l-3.4,3.09c-.16,.07-.41,.25-.73,.53-.89,.78-2.07,1.74-3.52,2.88l-3.64,3.09c0,.07,.04,.11,.12,.11,.65,0,1.9-.82,3.77-2.45l1.94-1.17c0,.43-.93,1.38-2.79,2.88-1.86,1.49-2.92,2.24-3.16,2.24s-.38,.04-.42,.11c-.04,.07-.06,.14-.06,.21s-.2,.25-.61,.53l-4.86,2.88c-1.7,.92-4.21,1.7-7.53,2.34l-8.26,1.49Zm-17.61-13.64l.12-.11c0-.21-.08-.55-.24-1.01-.16-.46-.36-1.58-.61-3.36-.57-4.05-.85-7.35-.85-9.91,0-.71,.04-1.49,.12-2.34,.08-.85,.16-1.54,.24-2.08,.08-.53,.18-1.22,.3-2.08s.26-1.81,.42-2.88c.16-.64,.28-1.31,.36-2.02,.32-2.34,.93-4.97,1.82-7.88,.89-2.91,1.82-5.4,2.79-7.46l.36-1.07-.12-.11c-.24,0-.65,.18-1.22,.53-1.54,1-2.31,1.69-2.31,2.08s-.24,.94-.73,1.65c-.41,.5-.69,.75-.85,.75l-.37-.32c-.24,0-.36,.36-.36,1.07l.12,1.38,.12,.53c0,.43-.22,.64-.67,.64s-.67,.57-.67,1.7c0,.36,.04,.69,.12,1.01,.08,.32,.12,.52,.12,.59v.11c-.08,0-.14-.09-.18-.27-.04-.18-.1-.27-.18-.27-.16,0-.32,.64-.49,1.92l-.12,1.81c0,.43,.04,.68,.12,.75,.08,.07,.12,.14,.12,.21s-.08,.18-.24,.32c-.49,.43-.73,2.63-.73,6.6,0,2.34,.12,3.52,.36,3.52l.12-.11c.16,0,.24,.14,.24,.43,0,.21-.08,.32-.24,.32h-.24c-.08,0-.12,.32-.12,.96,0,1.78,.16,2.66,.49,2.66h.12c.16,0,.24,.18,.24,.53v1.28c-.08,0-.16-.16-.24-.48-.08-.32-.16-.48-.24-.48v.11c0,.5,.18,1.49,.55,2.98s.79,3.02,1.28,4.58c.73,2.13,1.17,3.2,1.34,3.2Zm5.83-53.26l.61-.75-.12-.11c-.24,0-.41,.14-.49,.43v.43Zm1.34,1.7c.16,0,.38-.05,.67-.16,.28-.11,.55-.21,.79-.32,.24-.11,.53-.32,.85-.64,.32-.32,.59-.67,.79-1.07,.2-.39,.61-1.1,1.21-2.13,.61-1.03,1.23-2.15,1.88-3.36,4.37-7.46,6.56-11.61,6.56-12.46,0-.07-.04-.12-.12-.16-.08-.03-.12-.12-.12-.27,0-.21,.4-.99,1.22-2.34,.97-1.56,1.54-2.34,1.7-2.34s.3-.23,.42-.69c.12-.46,.71-1.51,1.76-3.14,2.35-3.76,4.41-6.78,6.2-9.05v-.11l-.61,.64c-.81,.92-1.82,2.2-3.04,3.84-1.86,2.77-3,4.15-3.4,4.15v-.11c0-.21,.12-.43,.36-.64s.36-.39,.36-.53l-.12-.21-.49,.21v-.11c0-.43,.16-.89,.49-1.39l.49-.75c0-.07-.04-.11-.12-.11s-.32,.25-.73,.75c-2.19,3.05-3.28,4.65-3.28,4.79,.24,0,.38-.03,.42-.11,.04-.07,.22-.18,.55-.32,.08,0,.12,.04,.12,.11l-.12,.32c-.16,.43-.45,.64-.85,.64s-1.2,.91-2.37,2.72c-1.18,1.81-1.78,2.75-1.82,2.82-.04,.07-.18,.28-.42,.64-.24,.36-.49,.75-.73,1.17-.81,1.21-1.62,2.63-2.43,4.26,.57-.71,1.13-1.31,1.7-1.81l.61-.32h.36c.08,.07,.12,.18,.12,.32l-3.28,5.86c-.08,.21-.2,.39-.36,.53-.24,.5-.51,.96-.79,1.38-.28,.43-.47,.71-.55,.85-.32,.28-.61,.71-.85,1.28-.08,.21-.2,.41-.36,.59-.16,.18-.53,.27-1.09,.27v-.53c.97-1.7,1.46-2.66,1.46-2.88-.08,0-.61,.82-1.58,2.45-.41,.71-.73,1.35-.97,1.92l-.49,1.49c.08,0,.14-.09,.18-.27,.04-.18,.18-.3,.42-.37,.16,0,.3,.04,.42,.11,.12,.07,.18,.25,.18,.53l-.36,1.39-.36,.64v.53c0,.21-.14,.39-.43,.53-.28,.14-.42,.36-.42,.64,0,.21,.12,.32,.36,.32Zm10.33-19.6v-.11c0-.35,.06-.82,.18-1.38,.12-.57,.28-1.1,.49-1.6,.2-.5,.41-.82,.61-.96,.2-.14,.34-.21,.43-.21l-.12,.53v.27c0,.11,.04,.16,.12,.16s.12,.07,.12,.21-.26,.69-.79,1.65c-.53,.96-.87,1.44-1.03,1.44Zm4.62-8.63c-.16,0-.24-.07-.24-.21,0-.07,.26-.43,.79-1.07,.53-.64,.83-.96,.91-.96,0,.21-.08,.48-.24,.8-.16,.32-.24,.52-.24,.59v.11l.49-.21v.11c0,.21-.18,.41-.55,.59-.36,.18-.67,.27-.91,.27Zm3.52-5.96c.08,0,.26-.14,.55-.43,.28-.28,.5-.57,.67-.85,.16-.28,.24-.46,.24-.53v-.11c-.16,0-.45,.28-.85,.85-.41,.57-.61,.92-.61,1.07Zm1.82-2.34c.16,0,.65-.6,1.46-1.81l.97-1.6c-.24,.14-.71,.68-1.4,1.6-.69,.92-1.03,1.49-1.03,1.7v.11Zm6.56-24.82l2.19-.53c1.46-.35,3.22-.78,5.28-1.28,2.06-.5,3.85-.96,5.35-1.38,1.5-.43,2.29-.71,2.37-.85l.24-.21-7.29,1.92c-5.51,1.35-8.26,2.13-8.26,2.34h.12Zm4.13,4.58c.32,0,.49-.03,.49-.11l-.12-.11h-.85v.11c0,.07,.16,.11,.49,.11Zm1.09-4.26l2.43-.43c1.54-.35,2.31-.64,2.31-.85h-.12c-.41,0-1.28,.2-2.61,.59-1.34,.39-2,.62-2,.69Zm13.12-5.01c.4-.07,.65-.14,.73-.21l-.12-.21-1.46,.32c0,.07,.06,.11,.18,.11h.67Zm1.46,1.7c.16,0,.44-.09,.85-.27,.4-.18,.61-.3,.61-.37h-.24c-.16,0-.35,.04-.55,.11-.2,.07-.38,.16-.55,.27-.16,.11-.24,.2-.24,.27h.12Zm1.82-2.34c.32,0,.53-.03,.61-.11l-.12-.11h-.85l-.12,.11c0,.07,.16,.11,.49,.11Zm1.58,5.86c.08,0,.18-.09,.3-.27,.12-.18,.28-.32,.49-.43,.2-.11,.38-.19,.55-.27l.24-.11h-.12c-.16,0-.47,.04-.91,.11-.45,.07-.89,.14-1.34,.21-.45,.07-.75,.18-.91,.32l-.36,.11,.24,.11,1.22-.21c.32,0,.49,.07,.49,.21s.04,.21,.12,.21Zm-.24-4.26c0-.07-.06-.12-.18-.16-.12-.03-.22-.05-.3-.05-.24,0-.36,.07-.36,.21h.85Zm.85-1.92c1.05,0,2.02-.12,2.92-.37,.89-.25,2.21-.53,3.95-.85,1.74-.32,3.44-.64,5.1-.96,1.66-.32,2.81-.5,3.46-.53,.65-.03,1.22-.16,1.7-.37,.08-.07,4.9-.78,14.46-2.13l4.13-.64-2.92,.11c-3.48,.36-7.37,.89-11.66,1.6l-2.79,.43c-5.1,.71-10.33,1.67-15.67,2.88-.16,.14-.77,.29-1.82,.43-1.05,.14-1.58,.25-1.58,.32l.73,.11Zm2.55,5.01l.36-.11c0-.07-.06-.12-.18-.16-.12-.03-.22-.05-.3-.05-.16,0-.29,.04-.37,.11,0,.14,.16,.21,.49,.21Zm1.34-.43c.24,0,.36-.04,.36-.11l-.12-.11c-.41,0-.61,.04-.61,.11s.12,.11,.36,.11Zm1.09-.21c.08,0,.36-.04,.85-.11,.49-.07,.91-.14,1.28-.21,.36-.07,.59-.11,.67-.11s.18-.05,.3-.16c.12-.11,.18-.23,.18-.37,0-.21-.04-.32-.12-.32s-.18,.09-.3,.27c-.12,.18-.35,.27-.67,.27l-.85-.11c-.49,0-.85,.11-1.09,.32s-.36,.36-.36,.43,.04,.11,.12,.11Zm.36-3.84c.08,0,.28-.04,.61-.11,.32-.07,.61-.12,.85-.16,.24-.03,.36-.12,.36-.27h-.12c-.08,0-.41,.05-.97,.16-.57,.11-.85,.23-.85,.37h.12Zm3.16-.53c.24,0,.53-.03,.85-.11,.32-.07,.61-.14,.85-.21,.24-.07,.36-.14,.36-.21s-.2-.11-.61-.11c-.24,0-.53,.04-.85,.11-.32,.07-.61,.14-.85,.21-.24,.07-.36,.14-.36,.21s.2,.11,.61,.11Zm2.55,90.44c.08,0,.2-.05,.36-.16,.16-.11,.34-.34,.55-.69,.2-.35,.3-.57,.3-.64-.08,0-.32,.11-.73,.32-.41,.21-.61,.5-.61,.85,0,.21,.04,.32,.12,.32Zm.85-91.08c.16,0,.38-.09,.67-.27,.28-.18,.42-.3,.42-.37-.57,0-.91,.02-1.03,.05-.12,.04-.18,.2-.18,.48,0,.07,.04,.11,.12,.11Zm1.22,85.97c.08,0,.69-.6,1.82-1.81,.49-.57,.73-.89,.73-.96-.16,0-.85,.71-2.07,2.13l-.49,.64Zm1.22-86.29c.16,0,.38-.05,.67-.16,.28-.11,.42-.23,.42-.37,0-.07-.08-.11-.24-.11s-.45,.07-.85,.21l-.61,.32,.61,.11Zm1.94,82.88l.61-.53,.24-.53c-.08,0-.18,.05-.3,.16-.12,.11-.24,.23-.36,.37-.12,.14-.18,.25-.18,.32v.21Zm.49-83.3c.16,0,.38-.07,.67-.21,.28-.14,.42-.25,.42-.32s-.2-.11-.61-.11c-.49,0-.73,.11-.73,.32s.08,.32,.24,.32Zm1.82-.32c.24,0,.36-.11,.36-.32,0-.07-.02-.12-.06-.16-.04-.04-.1-.05-.18-.05l-.24,.21c-.16,.07-.24,.14-.24,.21s.12,.11,.36,.11Zm.49,83.84c.08,0,.12-.14,.12-.43s-.04-.43-.12-.43-.12,.18-.12,.53c0,.21,.04,.32,.12,.32Zm1.22-84.16c.4,0,.61-.03,.61-.11l-.12-.11h-.97v.11c0,.07,.16,.11,.49,.11Zm2.43-.32c.32,0,.49-.03,.49-.11l-.12-.11h-.85v.11c0,.07,.16,.11,.49,.11Zm.61,79.26c.24,0,.36-.11,.36-.32,0-.14-.08-.21-.24-.21l-.24,.11c-.08,.07-.12,.18-.12,.32,0,.07,.08,.11,.24,.11Zm1.94-79.58c.32,0,.49-.11,.49-.32s-.08-.32-.24-.32c-.24,0-.45,.11-.61,.32,0,.07,.02,.14,.06,.21,.04,.07,.14,.11,.3,.11Zm5.1,65.19c-.08,0-.12-.07-.12-.21,0-.07,.61-.75,1.82-2.02,.89-.92,1.42-1.38,1.58-1.38s.24,.07,.24,.21c0,.21-.16,.71-.49,1.49-.32,.78-.55,1.17-.67,1.17h-.42c-.32,0-.69,.12-1.09,.37-.41,.25-.69,.37-.85,.37Zm.61-65.83c.24,0,.65-.03,1.21-.11,.57-.07,1.15-.16,1.76-.27,.61-.11,1.09-.21,1.46-.32,.36-.11,.55-.19,.55-.27s-.04-.16-.12-.27c-.08-.11-.36-.16-.85-.16s-.77,.09-.85,.27c-.08,.18-.81,.44-2.19,.8-.81,.14-1.22,.25-1.22,.32h.24Zm.12,3.94c.4,0,.61-.11,.61-.32s-.12-.32-.36-.32c-.32,0-.49,.07-.49,.21v.21c0,.14,.08,.21,.24,.21Zm6.8-4.69c0-.14-.24-.21-.73-.21l-.49,.11c0,.07,.24,.11,.73,.11h.49Zm-.36-2.02c.49,0,.73-.03,.73-.11s-.24-.11-.73-.11-.73,.04-.73,.11,.24,.11,.73,.11Zm7.05,1.81c.57,0,1.05-.05,1.46-.16,.4-.11,.71-.16,.91-.16s.36-.02,.49-.05c.12-.03,.3-.09,.55-.16,.24-.07,.97-.18,2.19-.32,2.92-.35,5.14-.53,6.68-.53,.97,0,1.46,.11,1.46,.32v.21c0,.07,.16,.11,.49,.11s.79-.03,1.4-.11c.61-.07,1.56-.14,2.86-.21,1.29-.07,2.65-.18,4.07-.32,1.42-.14,2.63-.25,3.64-.32,1.01-.07,1.58-.14,1.7-.21,.12-.07,1.76-.28,4.92-.64l13.73-1.49,3.89-.21c-7.29,.14-18.51,.78-33.65,1.92-5.27,.43-9.35,.82-12.27,1.17-1.86,.28-3.08,.43-3.64,.43-.32,0-.49-.03-.49-.11v-.53c0-.21-.12-.32-.36-.32-.16,0-.24,.11-.24,.32v.21c0,.5-1.09,.75-3.28,.75h-1.09c-.97,0-1.46,.04-1.46,.11s.32,.14,.97,.21c.97,.07,2.19,.11,3.64,.11h1.46Zm-3.28-2.13c0-.14-.24-.21-.73-.21l-.61,.11c0,.07,.2,.11,.61,.11h.73Zm1.58,1.07c.24,0,.36-.03,.36-.11l-.12-.11h-.73c0,.14,.16,.21,.49,.21Zm.85-1.38v-.11l-.61-.11c-.32,0-.49,.04-.49,.11s.36,.11,1.09,.11Zm.85,4.58l.73-.11c1.13-.07,1.7-.21,1.7-.43,0-.14-.32-.21-.97-.21-1.13,.21-1.7,.43-1.7,.64l.24,.11Zm1.58-4.9c.4,0,.61-.03,.61-.11s-.2-.11-.61-.11c-.33,0-.49,.04-.49,.11s.16,.11,.49,.11Zm3.04-.32c.73,0,1.09-.03,1.09-.11l-.12-.11h-1.82l-.12,.11c0,.07,.32,.11,.97,.11Zm4.37-.32v-.11c0-.07-.16-.11-.49-.11l-.49,.11c0,.07,.32,.11,.97,.11Zm2.55,.96c0-.14-.24-.21-.73-.21s-.73,.04-.73,.11,.24,.11,.73,.11h.73Zm-.85,3.52c1.3,0,1.94-.18,1.94-.53,0-.07-.12-.12-.36-.16-.24-.04-.49-.05-.73-.05-.81,.14-1.22,.36-1.22,.64,0,.07,.12,.11,.36,.11Zm.97-4.79c.49,0,1.09-.02,1.82-.05,.73-.03,1.38-.12,1.94-.27l.85-.11h-.49c-.33,0-.89,.02-1.7,.05-.81,.04-1.54,.09-2.19,.16l-.97,.11c0,.07,.24,.11,.73,.11Zm8.38,4.9l.12-.11-.97-.11c-.65,0-.97,.04-.97,.11s.61,.11,1.82,.11Zm1.09-5.65c0-.14-.32-.21-.97-.21s-.97,.07-.97,.21h1.94Zm-1.34,4.79c.08,0,.2-.05,.36-.16,.16-.11,.24-.2,.24-.27s-.04-.11-.12-.11h-.24c-.41,.21-.61,.36-.61,.43s.12,.11,.36,.11Zm1.94,.85c.32,0,.49-.14,.49-.43l-.49-.11c-.24,0-.37,.07-.37,.21,0,.21,.12,.32,.37,.32Zm5.1-5.97l.12-.11c0-.07-.32-.11-.97-.11-.32,0-.59,.02-.79,.05-.2,.04-.3,.09-.3,.16h1.94Zm2.92-.21l.36-.11c0-.07-.06-.12-.18-.16-.12-.03-.26-.05-.42-.05s-.24,.07-.24,.21c0,.07,.16,.11,.49,.11Zm1.7,0l.36-.11c0-.14-.2-.21-.61-.21-.16,0-.24,.07-.24,.21,0,.07,.16,.11,.49,.11Z"/><path class="cls-2" d="M173.49,366.29h-.61c-.32-.28-.55-.55-.67-.8-.12-.25-.26-.48-.43-.69-.24-.64-.65-1.03-1.21-1.17-.57-.35-.85-.57-.85-.64,0-.5,1.07-2.06,3.22-4.69,2.15-2.63,4.64-5.5,7.47-8.63,3.81-4.19,6.6-7.07,8.38-8.63,1.21-1.14,2.08-1.99,2.61-2.56,.53-.57,.83-1.08,.91-1.54,.08-.46,.12-1.22,.12-2.29,0-2.7-.08-4.06-.24-4.1-.16-.03-.24-.51-.24-1.44,0-2.41,.2-5.11,.61-8.1,.24-2.41,.65-5.11,1.22-8.1l.12-.53c0-.14-.02-.23-.06-.27-.04-.03-.1-.05-.18-.05l-.36,.11c0-.07,.12-.21,.36-.43,.24-.21,.4-.43,.49-.64v-.85l.85-1.39c-1.7,1.49-2.59,2.24-2.67,2.24s-.12-.04-.12-.11c0-.14,.14-.43,.42-.85,.28-.43,.67-.85,1.15-1.28,1.21-1.07,2.06-2.06,2.55-2.98,.49-.92,.93-1.54,1.34-1.86,.4-.32,.97-.48,1.7-.48,1.3,0,2.02,.32,2.19,.96,.08,.36,.32,.53,.73,.53h.36c.97,0,1.74,.6,2.31,1.81,.24,.36,.36,.75,.36,1.17,0,.36-.2,1.07-.61,2.13-.57,1.49-.85,2.45-.85,2.88-.08,.07-.18,.11-.3,.11s-.18,.18-.18,.53c.08,.07,.12,.18,.12,.32-.08,.21-.18,.37-.3,.48-.12,.11-.22,.28-.3,.53-.08,.25-.12,.53-.12,.85s-.06,.71-.18,1.17c-.12,.46-.26,.84-.42,1.12-.16,.28-.32,.43-.49,.43-.08,0-.12-.04-.12-.11,0-.14,.04-.28,.12-.43,.08-.14,.12-.25,.12-.32h-.12l-.24,.21c-.16,.14-.24,.28-.24,.43s.08,.34,.24,.59c.16,.25,.24,.73,.24,1.44,0,1.07-.2,2.59-.61,4.58-.08,.43-.14,.96-.18,1.6-.04,.64-.06,1.67-.06,3.09,3.89-3.41,8.3-6.85,13.24-10.33,5.67-4.05,8.95-6.07,9.84-6.07,.16,0,.36,.11,.61,.32,.24,.21,.37,.39,.37,.53,0,.07-.16,.21-.49,.43-.32,.21-.49,.36-.49,.43l1.09-.21c.24,0,.36,.07,.36,.21,0,.28-.41,.89-1.22,1.81l-2.19,2.45h-.12c-.16,.28-.3,.46-.42,.53-.12,.07-.35,.14-.67,.21,0-.07-.04-.11-.12-.11l-.12,.11c-.08,.07-.12,.18-.12,.32s-.28,.36-.85,.64c-.57,.28-.85,.48-.85,.59s-.2,.36-.61,.75c-.41,.39-.93,.8-1.58,1.22-1.46,1.07-3.6,2.81-6.44,5.22-3.73,3.2-7.09,6.22-10.08,9.05v4.58c.16,3.27,.49,5.79,.97,7.56,1.3,3.98,2.51,6.25,3.64,6.82,.32,.14,.81,.21,1.46,.21,2.67,0,5.1-.25,7.29-.75,1.21-.43,3.18-1.3,5.89-2.61,2.71-1.31,5.08-2.57,7.11-3.78,3.08-1.85,6.54-4.31,10.39-7.4,3.85-3.09,7.51-6.34,10.99-9.75,.57,.28,1.17,.43,1.82,.43l.73-.11-7.77,6.92c-2.84,2.49-4.25,3.8-4.25,3.94,.08,0,.49-.25,1.22-.75,1.62-1.21,2.99-2.17,4.13-2.88,.81-.43,1.54-1.03,2.19-1.81,.4-.5,.93-1.03,1.58-1.6,1.38-1.42,2.43-2.31,3.16-2.66l.61-.32c0,.36-.18,.66-.55,.91-.36,.25-1.03,.87-2,1.86l-3.04,3.09c.24,0,2.35-1.7,6.32-5.11l2.43-2.24,.73,.32,.12,.96c-.73,.71-1.09,1.14-1.09,1.28h.24l.85-.53c-.08,.71-.24,1.42-.49,2.13l-.97,1.07-1.34,1.17c-1.13,1.28-3.12,3.2-5.95,5.75-2.11,1.92-3.81,3.34-5.1,4.26l-2.31,1.7c-2.19,1.92-5.45,4.12-9.78,6.6-4.33,2.49-7.03,3.73-8.08,3.73-.16,0-.28-.04-.36-.11-.08-.07-.16-.11-.24-.11-.16,0-.41,.14-.73,.43-.73,.43-1.62,.71-2.67,.85l-.73,.21-2.92,.43c-1.22,.21-2.27,.32-3.16,.32-1.38,0-2.43-.21-3.16-.64l-2.79-1.38c-.89-.43-2.19-1.35-3.89-2.77-3-2.41-5.06-4.83-6.2-7.24-.89-1.7-1.5-3.3-1.82-4.79-.08-.28-.16-.43-.24-.43-.16,.07-.55,.43-1.15,1.06-.61,.64-1.26,1.33-1.94,2.08-.69,.75-1.15,1.33-1.4,1.76-.24,.43-.53,.85-.85,1.28-.32,.43-.63,.8-.91,1.12-.28,.32-.79,.92-1.52,1.81-.73,.89-1.48,1.88-2.25,2.98-.77,1.1-1.5,2.08-2.19,2.93-.69,.85-1.15,1.38-1.4,1.6s-.44,.43-.61,.64c-.16,.21-.28,.36-.36,.43-.32,.71-.75,1.33-1.28,1.86-.53,.53-1.07,.87-1.64,1.01-.57,.14-.97,.21-1.22,.21Zm43.61-46.23l.61-.43,.24-.43c-.08,0-.18,.05-.3,.16-.12,.11-.24,.21-.36,.32-.12,.11-.18,.18-.18,.21v.16Zm1.58-1.39c.24,0,.81-.32,1.7-.96l1.82-1.39-.12-.11c-.24,0-.61,.14-1.09,.43-.81,.5-1.22,.8-1.22,.91s-.16,.3-.49,.59c-.41,0-.61,.18-.61,.53Zm24.3,23.54l1.09-1.38h-.12c-.24,.14-.49,.39-.73,.75l-.24,.64Zm1.94,1.39c.08,0,.36-.18,.85-.53,1.29-1.28,1.94-1.95,1.94-2.02-.16,0-.61,.25-1.34,.75-.97,.78-1.46,1.39-1.46,1.81Zm3.4-3.52l.73-.43c.4-.28,.75-.57,1.03-.85,.28-.28,.5-.53,.67-.75l.24-.32-1.7,1.39-.97,.96Zm3.16-2.77c.08,0,.24-.09,.49-.27,.24-.18,.44-.37,.61-.59l.24-.32c-.08,0-.24,.11-.49,.32-.24,.21-.45,.39-.61,.53l-.24,.32Z"/><path class="cls-2" d="M263.5,373.86h-1.46c-3.56,0-7.21-.99-10.93-2.98-2.43-1.28-4.25-2.7-5.47-4.26-.16-.35-.61-.99-1.34-1.92-2.92-3.34-4.37-6.96-4.37-10.87,0-1.7,.24-3.48,.73-5.33,2.51-9.3,8.87-19.21,19.07-29.72,1.86-1.85,3.78-3.64,5.77-5.38,1.98-1.74,3.72-3.16,5.22-4.26,1.5-1.1,2.47-1.65,2.91-1.65s1.07-.32,1.88-.96c1.38-1.07,3.36-2.11,5.95-3.14,2.59-1.03,5.14-1.79,7.65-2.29,2.02-.35,3.89-.53,5.59-.53,3.16,0,5.75,.64,7.77,1.92,2.67,1.49,4.17,3.41,4.5,5.75l.12,1.81c0,.36-.08,.75-.24,1.17-.97,2.77-1.7,4.65-2.19,5.65-.49,1-1.34,2.34-2.55,4.05-.32,.5-.49,.78-.49,.85s-.32,.57-.97,1.49c-4.94,6.96-9.35,11.54-13.24,13.74-1.22,.57-2.55,.85-4.01,.85-.24,0-.89-.04-1.94-.11-1.05-.07-2.31-.57-3.77-1.49-1.86-1.35-2.79-2.7-2.79-4.05l.12-1.6c2.51,0,3.97,.07,4.37,.21,.4,.14,.89,.39,1.46,.75,1.05,.71,1.62,1.07,1.7,1.07,.32,0,1.11-.48,2.37-1.44,1.26-.96,2.49-2.08,3.71-3.36,3.64-3.62,7.05-8.13,10.2-13.53,.73-1.28,1.26-2.25,1.58-2.93,.32-.67,.53-1.23,.61-1.65,.08-.43,.12-.96,.12-1.6,0-1.35-.08-2.31-.24-2.88-.32-1.13-2.03-1.7-5.1-1.7-2.67,0-5.22,.75-7.65,2.24-.57,.28-1.24,.64-2,1.07-.77,.43-1.5,.8-2.19,1.12-.69,.32-1.42,.69-2.19,1.12-.77,.43-1.38,.78-1.82,1.07-.45,.28-.85,.52-1.21,.69-.36,.18-.61,.27-.73,.27s-1.18,.84-3.16,2.5c-1.99,1.67-4.13,3.53-6.44,5.59-2.31,2.06-4.17,3.8-5.59,5.22-1.42,1.42-3,3.2-4.74,5.33-1.74,2.13-3.28,4.14-4.62,6.02-1.34,1.88-2.13,3.21-2.37,4-.08,.28-.26,.76-.55,1.44-.29,.68-.63,1.42-1.03,2.24-.41,.82-.83,1.83-1.28,3.04-.45,1.21-.83,2.31-1.15,3.3-.41,1.42-.69,2.58-.85,3.46-.16,.89-.24,2.08-.24,3.57,0,1.85,.18,3.36,.55,4.53,.36,1.17,.95,2.29,1.76,3.36,.57,.64,1.62,1.33,3.16,2.08,1.54,.75,3.1,1.3,4.68,1.65,1.58,.36,3.3,.53,5.16,.53,3.32,0,6.96-.53,10.93-1.6,17.9-5.18,34.66-14.27,50.29-27.27,2.59-2.27,4.62-4.15,6.07-5.65,.65-.92,1.74-2.17,3.28-3.73,.97-1.13,1.66-2.01,2.06-2.61,.4-.6,.73-.91,.97-.91s.65-.35,1.22-1.07c.57-.71,.93-1.07,1.09-1.07v.11c0,.36-.41,1.24-1.21,2.66l1.09-.96v.75c0,.28,.08,.43,.24,.43s.24,.14,.24,.43c0,.5-.45,1.53-1.34,3.09-1.13,1.78-2.61,3.59-4.43,5.43-1.82,1.85-2.84,3.07-3.04,3.67-.2,.6-1.07,1.62-2.61,3.04-4.46,4.05-8.34,7.17-11.66,9.37-3,2.13-6.42,4.3-10.27,6.5-3.85,2.2-6.3,3.69-7.35,4.47-2.59,1.63-6.4,3.36-11.42,5.17-5.02,1.81-9.33,3.04-12.94,3.67-3.6,.64-6.62,.96-9.05,.96Zm-21.75-21.2l.49-2.24c.16-1.21,.49-2.45,.97-3.73,.73-1.99,2.11-4.83,4.13-8.52,1.3-2.06,1.94-3.27,1.94-3.62l-.12-.11-.12,.11c-.81,.71-2.19,3.09-4.13,7.14-1.46,3.05-2.35,5.33-2.67,6.82-.16,.64-.32,2.02-.49,4.15Zm9.6-21.41c.16,0,.44-.25,.85-.75l.85-1.17c-.08,0-.38,.27-.91,.8-.53,.53-.79,.91-.79,1.12Zm2.06-2.66c.16,0,.49-.28,.97-.85,.49-.57,.73-.96,.73-1.17l-.49,.53c-.41,.36-.71,.66-.91,.91-.2,.25-.3,.41-.3,.48v.11Zm3.77-4.58c.08,0,.26-.11,.55-.32,.28-.21,.65-.55,1.09-1.01,.44-.46,.83-.94,1.15-1.44l.12-.21c-.08,0-.41,.28-.97,.85-.57,.57-1.03,1.03-1.4,1.38-.36,.36-.55,.6-.55,.75Zm46.41,35.05c.16,0,1.38-.67,3.64-2.02,.81-.57,1.74-1.19,2.79-1.86,1.05-.67,1.94-1.3,2.67-1.86l3.4-2.24c2.51-1.92,4.94-4.01,7.29-6.28,3.16-2.98,4.86-4.9,5.1-5.75,0-.07-.04-.11-.12-.11-.33,0-1.5,.96-3.52,2.88-2.67,2.34-4.62,4.08-5.83,5.22-1.21,1.14-1.82,1.78-1.82,1.92v.32l-.24-.11c-.24,0-.69,.21-1.34,.64-.32,.29-1.42,1.07-3.28,2.34-.41,.21-.77,.46-1.09,.75-4.29,2.91-6.44,4.49-6.44,4.74s-.2,.53-.61,.85c-.41,.32-.61,.52-.61,.59Zm26-20.99c.32,0,.73-.35,1.22-1.07,.24-.35,.55-.76,.91-1.23,.36-.46,.55-.8,.55-1.01l-1.34,1.39c-.89,1.14-1.34,1.74-1.34,1.81v.11Z"/><path class="cls-2" d="M338.34,362.14c-1.13,0-1.92-.12-2.37-.37-.45-.25-.79-.37-1.03-.37l-.36,.11c-.32,0-1.11-.39-2.37-1.17-1.26-.78-2.55-1.74-3.89-2.88-1.34-1.13-2.33-2.15-2.98-3.04-.65-.89-1.3-1.39-1.94-1.49-.65-.11-.97-.23-.97-.37,0-.21,.28-.43,.85-.64,.57-.21,.85-.43,.85-.64l-.12-.32c-.32-1.07-.49-2.17-.49-3.3,0-2.98,.97-6.39,2.91-10.23,1.3-2.41,3-5.08,5.1-7.99,2.1-2.91,3.85-5.04,5.22-6.39l2.91-2.88c2.83-3.05,4.9-4.72,6.2-5.01,.32-.07,.77-.11,1.34-.11l5.22,.85c2.67,.43,5.22,1.78,7.65,4.05,2.92,2.34,4.37,4.55,4.37,6.6,0,3.76-2.67,8.1-8.02,13-3.32,3.05-8.38,6.28-15.19,9.69-2.59,1.35-5.47,2.59-8.63,3.73-1.54,.64-2.31,1.03-2.31,1.17,.08,.64,.85,1.14,2.31,1.49,.97,.28,2.06,.43,3.28,.43l1.46-.11c7.78-.64,15.51-3.16,23.2-7.56,2.02-1.07,3.16-1.6,3.4-1.6s.57-.14,.97-.43c1.05-.64,1.58-1.05,1.58-1.22s.32-.51,.97-1.01c1.62-1.28,2.55-1.92,2.79-1.92h.12l-.73,.85,.12,.11c.16,0,1.34-.78,3.52-2.34,.89-.71,1.84-1.42,2.86-2.13,1.01-.71,1.84-1.31,2.49-1.81,2.75-1.85,5.55-4.08,8.38-6.71l7.05-6.6c5.1-4.9,7.81-7.35,8.14-7.35,0,.28-.77,1.24-2.31,2.88l-1.7,1.92c.08,0,.49-.35,1.22-1.07,1.13-.99,1.86-1.49,2.19-1.49h.12c0,.14-.18,.41-.55,.8-.36,.39-.55,.84-.55,1.33,0,.21,.02,.32,.06,.32h.18c.08,0,.2-.07,.36-.21,.16-.14,.28-.21,.36-.21,0,.14-.61,.85-1.82,2.13-.97,1-1.9,2.17-2.79,3.52-.41,.85-1.13,1.85-2.19,2.98l-1.09,1.28c-1.38,1.42-3.44,3.41-6.2,5.97-6.48,5.9-10.85,9.73-13.12,11.5-5.99,4.26-12.23,7.78-18.71,10.55l-1.7,.85c-1.22,.64-3.08,1.21-5.59,1.7-3.64,.78-7.01,1.17-10.08,1.17Zm-7.9-13.64v-.11c.08,0,.24-.05,.49-.16,.24-.11,.61-.3,1.09-.59,.49-.28,.95-.55,1.4-.8,.45-.25,.95-.59,1.52-1.01,3.64-1.99,6.15-3.59,7.53-4.79,0-.21,.93-.89,2.79-2.02,1.54-1.21,3.36-2.75,5.47-4.63,2.1-1.88,3.56-3.34,4.37-4.37,.81-1.03,1.46-2.24,1.94-3.62,.49-1.39,.73-2.47,.73-3.25,0-.85-.22-1.47-.67-1.86-.45-.39-1.15-.69-2.13-.91l-1.22-.11c-.97,0-2.09,.36-3.34,1.07-1.26,.71-3.14,2.45-5.65,5.22-4.7,5.11-8.28,9.87-10.75,14.27-2.47,4.4-3.71,6.96-3.71,7.67h.12Zm49.32-6.92l.85-.75c.57-.43,1.11-.89,1.64-1.39,.53-.5,.95-.92,1.28-1.28,.57-.64,.85-.99,.85-1.07-.08,0-1.05,.89-2.91,2.66-1.14,1.14-1.7,1.74-1.7,1.81Z"/><path class="cls-2" d="M430.3,403.05h-.49c-.49,0-1.09-.32-1.82-.96-.24-.07-.47-.11-.67-.11s-.53-.27-.97-.8c-.45-.53-.99-.98-1.64-1.33-.97-.43-1.46-2.17-1.46-5.22,0-2.84,.2-5.25,.61-7.24l1.7-7.56c1.21-4.47,3.08-10.23,5.59-17.26,1.3-3.69,2.92-7.7,4.86-12.04l2.79-6.39c4.86-10.51,8.99-19.14,12.39-25.89l1.94-3.94h-.12l-3.4,4.47c-5.51,7.39-9.27,12.36-11.3,14.91l-1.46,1.7c-.41,.71-1.38,1.88-2.92,3.52-.65,.78-1.4,1.67-2.25,2.66-.85,1-1.68,2.01-2.49,3.04-.81,1.03-1.36,1.7-1.64,2.02-.29,.32-1.64,2.01-4.07,5.06-.81,1-1.66,1.99-2.55,2.98-.89,1-1.68,1.95-2.37,2.88-.69,.92-1.15,1.6-1.4,2.02-.65,1.35-2.21,3.2-4.68,5.54-2.47,2.34-5.08,4.56-7.84,6.66-2.75,2.1-4.94,3.46-6.56,4.1-1.14,.43-2.63,.64-4.5,.64-.97,0-1.78-.11-2.43-.32-.65-.21-1.38-.75-2.19-1.6-.81-.85-1.56-1.81-2.25-2.88-.69-1.07-1.15-1.99-1.4-2.77-.57-1.99-.85-4.62-.85-7.88,0-3.05,.93-8.2,2.79-15.45,1.3-5.11,2.75-9.48,4.37-13.1l.85-1.92c.89-2.13,2.33-5.22,4.31-9.27,1.98-4.05,3.66-7.35,5.04-9.91,.65-1.49,2.06-3.87,4.25-7.14l3.4-4.9c3.56-5.61,5.71-8.93,6.44-9.96,.73-1.03,2.99-3.96,6.8-8.79,5.26-6.46,11.5-12.46,18.71-18,1.54-1.21,2.31-1.88,2.31-2.02s.28-.32,.85-.53c.49,0,.91,.05,1.28,.16,.36,.11,.73,.25,1.09,.43,.36,.18,.55,.34,.55,.48s.08,.27,.24,.37c.16,.11,.36,.2,.61,.27,1.46,.43,2.43,1,2.91,1.7,.49,.71,.73,2.02,.73,3.94,0,4.33-3.69,13.14-11.06,26.42-1.78,3.48-3.24,6.14-4.37,7.99-3.89,5.97-8.02,11.4-12.39,16.3-5.18,5.82-9.76,10.19-13.73,13.1-4.46,3.41-7.61,5.4-9.48,5.97-.73,.21-1.46,1-2.19,2.34-.49,1-.87,1.92-1.15,2.77-.28,.85-.67,1.85-1.15,2.98-.81,1.92-1.86,5.68-3.16,11.29-1.3,5.61-1.94,9.37-1.94,11.29,0,.36,.04,.68,.12,.96,.08,.78,.28,1.17,.61,1.17l.49-.11c1.78-.5,4.94-2.48,9.48-5.96,2.59-1.92,3.93-2.88,4.01-2.88,1.05,0,5.99-4.83,14.82-14.49,3.64-3.9,6.96-7.67,9.96-11.29l2.31-2.77c4.05-4.9,6.76-8.27,8.14-10.12l7.65-9.91,8.26-11.19c2.27-3.27,5.3-7.39,9.11-12.36,4.86-6.82,7.31-10.51,7.35-11.08,.04-.57,1.13-2.45,3.28-5.65,2.14-3.2,4.84-6.99,8.08-11.4,1.46-1.99,2.43-3.41,2.92-4.26,.73-1.42,1.58-2.63,2.55-3.62,.4-.5,.69-.78,.85-.85,.65,0,1.26,.21,1.82,.64,.57,.43,1.26,.78,2.06,1.07,.4,.07,.89,.32,1.46,.75,1.29,1.35,1.94,2.42,1.94,3.2,0,.14-.32,.62-.97,1.44-.65,.82-1.46,1.72-2.43,2.72-1.7,1.7-3.6,4.01-5.71,6.92-.97,1.49-1.94,2.88-2.92,4.15-.57,.64-1.74,2.2-3.52,4.69-.16,.36-.38,.75-.67,1.17-.28,.43-.55,.85-.79,1.28-.41,1-1.18,2.2-2.31,3.62-2.43,3.41-5.91,9.37-10.45,17.9-2.11,3.77-3.67,6.71-4.68,8.84-1.01,2.13-2.25,4.47-3.71,7.03-3.32,6.25-6.99,13.76-10.99,22.53-4.01,8.77-7.35,16.57-10.02,23.38l-7.29,22.16c-.32,1.21-.65,2.63-.97,4.26-.49,1.99-.73,3.59-.73,4.79,0,.5,.36,.91,1.09,1.22,.73,.32,1.13,.55,1.22,.69,.08,.14,.12,.32,.12,.53l-.12,.64c0,.71-.16,1.56-.49,2.56-.16,1.56-.85,2.49-2.06,2.77Zm-26.6-74.78l.97-.53c.57-.35,1.3-.85,2.19-1.49,2.19-1.35,6.68-5.54,13.49-12.57,5.42-5.47,9.88-11.4,13.36-17.79,.49-.85,1.09-1.7,1.82-2.56,.49-.57,1.29-1.85,2.43-3.84,2.43-4.4,4.57-8.63,6.44-12.68,2.02-4.76,3.04-7.78,3.04-9.06v-.21c-.33,0-1.42,.82-3.28,2.45-3.4,2.98-7.03,6.68-10.87,11.08-3.85,4.4-6.1,7.21-6.74,8.42l-.97,1.38c-2.43,3.41-4.82,7.03-7.17,10.87-6.48,10.51-10.31,17.08-11.48,19.71-1.17,2.63-2,4.35-2.49,5.17-.49,.82-.73,1.33-.73,1.54v.11Zm20.17,17.9c.41,0,3.28-3.12,8.63-9.37,.73-.92,1.5-1.88,2.31-2.88,.81-.99,1.46-1.85,1.94-2.56,2.02-2.63,4.45-5.61,7.29-8.95,1.05-1.14,2.23-2.63,3.52-4.47,.32-.64,.77-1.33,1.34-2.08,.57-.75,1.05-1.4,1.46-1.97,.97-1.14,1.58-2.13,1.82-2.98l.12-.96c-.24,0-1.01,1-2.31,2.98-8.91,12-16.72,21.94-23.45,29.83-.81,.78-1.46,1.51-1.94,2.18-.49,.68-.73,1.08-.73,1.22Zm1.46,44l.12-.11v-.75h-.12c-.08,0-.12,.14-.12,.43s.04,.43,.12,.43Zm.36-1.38l.12-.53c.08-.35,.16-.67,.24-.96,.08-.28,.12-.53,.12-.75v-.43c-.08,0-.16,.16-.24,.48-.08,.32-.16,.64-.24,.96-.08,.32-.12,.59-.12,.8,0,.28,.04,.43,.12,.43Zm.61-3.62c.08,0,.36-.75,.85-2.24l2.92-9.59c2.35-7.38,4.09-12.29,5.22-14.7,.89-1.7,1.34-2.77,1.34-3.2s.49-1.77,1.46-4.05c1.46-3.76,3.52-8.31,6.2-13.64l6.44-13.42c1.13-2.7,3.2-6.89,6.19-12.57,3-5.68,4.5-8.7,4.5-9.06v-.11c-.49,0-4.09,6.82-10.81,20.45-12.07,24.22-19.88,43.64-23.45,58.27-.57,2.27-.85,3.55-.85,3.84Zm.97,12.14c.24-.21,.36-.84,.36-1.86s.2-2.43,.61-4.21c.49-1.42,.73-2.88,.73-4.37-.49,.92-.85,1.99-1.09,3.2-.65,3.05-.97,5.15-.97,6.28,0,.64,.08,.96,.24,.96h.12Zm1.7-11.72c.08,0,.18-.04,.3-.11,.12-.07,.3-.41,.55-1.01,.24-.6,.63-1.67,1.15-3.2,.53-1.53,1.07-3.09,1.64-4.69,.57-1.6,.93-2.72,1.09-3.36,.08-.28,.16-.43,.24-.43s.16,.07,.24,.21l.12,.21v-.75c0-.71,.24-1.74,.73-3.09,.65-1.7,.97-2.79,.97-3.25s.14-.82,.42-1.07c.28-.25,.51-.66,.67-1.22,.57-1.77,1.54-4.3,2.92-7.56,.4-1.07,.81-1.99,1.22-2.77,.08-.21,.14-.37,.18-.48,.04-.11,.16-.44,.37-1.01,.2-.57,.46-1.21,.79-1.92,.81-1.99,1.22-3.07,1.22-3.25s.16-.41,.49-.69c.32-.28,1.17-2.09,2.55-5.43,1.62-3.27,2.55-5.25,2.79-5.97,.4-.35,.69-.89,.85-1.6,.24-.43,.44-.67,.61-.75l.12,.21v-.32c0-.28,1.17-2.88,3.52-7.78,2.75-5.96,4.41-8.95,4.98-8.95h.24l-.24-.85,.61,.21v-.21c0-.21,.16-.75,.49-1.6,.32-.85,.75-1.83,1.28-2.93,.53-1.1,.99-1.99,1.4-2.66,.4-.67,1.05-1.85,1.94-3.52,.89-1.67,1.74-3.25,2.55-4.74l.85-2.02v-.11c0-.35,.44-1.21,1.34-2.56l4.98-9.06,1.34-2.77v-.11c-.08,0-.41,.43-.97,1.28-2.03,3.05-3.36,5.18-4.01,6.39l-.73,1.17c-1.78,2.98-3.36,5.75-4.74,8.31l-1.94,3.41c-.89,1.85-1.44,2.86-1.64,3.04-.2,.18-.38,.6-.55,1.28-.16,.68-.41,1.19-.73,1.54-.49,.64-.73,1.03-.73,1.17-.16,.64-.83,1.95-2,3.94-1.18,1.99-1.82,2.98-1.94,2.98s-.18,.04-.18,.11l.12,.21c0,.5-.32,1.38-.97,2.66-.41,.64-1.01,1.78-1.82,3.41-2.03,4.26-3.67,7.6-4.92,10.01-1.26,2.42-1.96,3.91-2.13,4.47-.08,.21-.2,.46-.36,.75-.16,.28-.53,1.1-1.09,2.45l-3.04,6.6c-.49,1-.73,1.51-.73,1.54,0,.04-.08,.28-.24,.75-.16,.46-.41,1.01-.73,1.65l-4.25,10.97c-1.94,5.04-3.12,8.2-3.52,9.48l-1.09,3.62c-.65,1.78-1.34,4.26-2.07,7.46,0,.43-.08,.87-.24,1.33-.16,.46-.24,.76-.24,.91Zm24.66-76.38c.16,0,.57-.46,1.22-1.39,1.13-1.7,1.7-2.8,1.7-3.3v-.11c-.08,0-.61,.68-1.58,2.02-.97,1.35-1.46,2.2-1.46,2.56,0,.14,.04,.21,.12,.21Zm8.14-7.03c.08-.07,.22-.27,.42-.59,.2-.32,.42-.73,.67-1.22,.24-.5,.36-.82,.36-.96-.16,0-.53,.5-1.09,1.49-.32,.64-.49,1.07-.49,1.28h.12Z"/><path class="cls-2" d="M478.65,362.14c-1.13,0-1.92-.12-2.37-.37-.45-.25-.79-.37-1.03-.37l-.36,.11c-.32,0-1.11-.39-2.37-1.17-1.26-.78-2.55-1.74-3.89-2.88-1.34-1.13-2.33-2.15-2.98-3.04-.65-.89-1.3-1.39-1.94-1.49-.65-.11-.97-.23-.97-.37,0-.21,.28-.43,.85-.64,.57-.21,.85-.43,.85-.64l-.12-.32c-.32-1.07-.49-2.17-.49-3.3,0-2.98,.97-6.39,2.91-10.23,1.3-2.41,3-5.08,5.1-7.99,2.1-2.91,3.85-5.04,5.22-6.39l2.91-2.88c2.83-3.05,4.9-4.72,6.2-5.01,.32-.07,.77-.11,1.34-.11l5.22,.85c2.67,.43,5.22,1.78,7.65,4.05,2.92,2.34,4.37,4.55,4.37,6.6,0,3.76-2.67,8.1-8.02,13-3.32,3.05-8.38,6.28-15.19,9.69-2.59,1.35-5.47,2.59-8.63,3.73-1.54,.64-2.31,1.03-2.31,1.17,.08,.64,.85,1.14,2.31,1.49,.97,.28,2.06,.43,3.28,.43l1.46-.11c7.78-.64,15.51-3.16,23.2-7.56,2.02-1.07,3.16-1.6,3.4-1.6s.57-.14,.97-.43c1.05-.64,1.58-1.05,1.58-1.22s.32-.51,.97-1.01c1.62-1.28,2.55-1.92,2.79-1.92h.12l-.73,.85,.12,.11c.16,0,1.34-.78,3.52-2.34,.89-.71,1.84-1.42,2.86-2.13,1.01-.71,1.84-1.31,2.49-1.81,2.75-1.85,5.55-4.08,8.38-6.71l7.05-6.6c5.1-4.9,7.81-7.35,8.14-7.35,0,.28-.77,1.24-2.31,2.88l-1.7,1.92c.08,0,.49-.35,1.22-1.07,1.13-.99,1.86-1.49,2.19-1.49h.12c0,.14-.18,.41-.55,.8-.36,.39-.55,.84-.55,1.33,0,.21,.02,.32,.06,.32h.18c.08,0,.2-.07,.36-.21,.16-.14,.28-.21,.36-.21,0,.14-.61,.85-1.82,2.13-.97,1-1.9,2.17-2.79,3.52-.41,.85-1.13,1.85-2.19,2.98l-1.09,1.28c-1.38,1.42-3.44,3.41-6.2,5.97-6.48,5.9-10.85,9.73-13.12,11.5-5.99,4.26-12.23,7.78-18.71,10.55l-1.7,.85c-1.22,.64-3.08,1.21-5.59,1.7-3.64,.78-7.01,1.17-10.08,1.17Zm-7.9-13.64v-.11c.08,0,.24-.05,.49-.16,.24-.11,.61-.3,1.09-.59,.49-.28,.95-.55,1.4-.8,.45-.25,.95-.59,1.52-1.01,3.64-1.99,6.15-3.59,7.53-4.79,0-.21,.93-.89,2.79-2.02,1.54-1.21,3.36-2.75,5.47-4.63,2.1-1.88,3.56-3.34,4.37-4.37,.81-1.03,1.46-2.24,1.94-3.62,.49-1.39,.73-2.47,.73-3.25,0-.85-.22-1.47-.67-1.86-.45-.39-1.15-.69-2.13-.91l-1.22-.11c-.97,0-2.09,.36-3.34,1.07-1.26,.71-3.14,2.45-5.65,5.22-4.7,5.11-8.28,9.87-10.75,14.27-2.47,4.4-3.71,6.96-3.71,7.67h.12Zm49.32-6.92l.85-.75c.57-.43,1.11-.89,1.64-1.39,.53-.5,.95-.92,1.28-1.28,.57-.64,.85-.99,.85-1.07-.08,0-1.05,.89-2.91,2.66-1.14,1.14-1.7,1.74-1.7,1.81Z"/><path class="cls-2" d="M527.12,366.93c-.32,0-.99-.39-2-1.17-1.01-.78-1.56-1.45-1.64-2.02-.08-.57-.37-.92-.85-1.07-.97-.28-1.46-1.24-1.46-2.88s.53-3.94,1.58-6.92c.81-2.56,3.46-8.63,7.96-18.22,4.5-9.59,10.55-19.64,18.16-30.15,.24,.43,.61,.76,1.09,1.01,.49,.25,.73,.62,.73,1.12s.08,.82,.24,.96c.16,.14,.26,.25,.3,.32,.04,.07,.06,.14,.06,.21l-.12,.11c0,.29,.18,.53,.55,.75s.67,.5,.91,.85c.4,.78,.61,1.42,.61,1.92,0,.28-.35,.85-1.03,1.7-.69,.85-1.8,2.56-3.34,5.11-3.64,5.96-6.4,10.87-8.26,14.7-2.84,5.68-4.25,8.67-4.25,8.95,.24,0,2.15-1.95,5.71-5.86,5.59-6.04,8.63-9.06,9.11-9.06,.08-.07,.53-.43,1.34-1.07,.81-.64,2.35-2.09,4.62-4.37,.57-.64,1.34-1.31,2.31-2.02,2.1-1.49,3.6-2.24,4.5-2.24,1.13,0,2.43,.43,3.89,1.28,.57,.36,.87,.64,.91,.85,.04,.21,.59,.89,1.64,2.02,.65,.57,1.09,1.1,1.34,1.6,.57,1.14,1.13,4.94,1.7,11.4,.65,7.46,1.74,11.97,3.28,13.53,.32,.36,1.13,.53,2.43,.53,.81,0,1.54-.07,2.19-.21,2.83-.64,7.82-4.4,14.94-11.29,2.75-2.77,4.33-4.15,4.74-4.15,.08,0,.12-.04,.12-.11v-.21c0-.35,.81-1.38,2.43-3.09-.41,.85-.85,1.67-1.34,2.45l1.82-2.02c.49,1.28,.73,2.13,.73,2.56,0,.57-.16,1.26-.49,2.08-.32,.82-1.23,2.15-2.73,3.99-1.5,1.85-2.35,3.09-2.55,3.73-.2,.64-.53,1.15-.97,1.54-.45,.39-.69,.73-.73,1.01-.04,.28-.63,1-1.76,2.13-2.75,2.91-5.35,5.26-7.77,7.03-1.54,1.21-2.61,1.81-3.22,1.81s-1.03,.09-1.28,.27c-.24,.18-.49,.27-.73,.27-.49,0-1.22-.19-2.19-.59-.97-.39-2.03-1.03-3.16-1.92-1.14-.89-2.33-2.18-3.58-3.89-1.26-1.7-2.27-3.39-3.04-5.06-.77-1.67-1.38-3.43-1.82-5.27-.45-1.85-.87-4.65-1.28-8.42-.24-2.06-.47-3.82-.67-5.27-.2-1.45-.35-2.25-.42-2.4l-.36,.21c-.32,.14-.69,.36-1.09,.64-5.1,3.62-11.32,9.46-18.65,17.52-7.33,8.06-12.41,14.65-15.25,19.76-1.7,3.34-2.99,5.01-3.89,5.01Z"/><path class="cls-2" d="M613.37,373.86h-1.46c-3.56,0-7.21-.99-10.93-2.98-2.43-1.28-4.25-2.7-5.47-4.26-.16-.35-.61-.99-1.34-1.92-2.92-3.34-4.37-6.96-4.37-10.87,0-1.7,.24-3.48,.73-5.33,2.51-9.3,8.87-19.21,19.07-29.72,1.86-1.85,3.78-3.64,5.77-5.38,1.98-1.74,3.72-3.16,5.22-4.26,1.5-1.1,2.47-1.65,2.92-1.65s1.07-.32,1.88-.96c1.38-1.07,3.36-2.11,5.95-3.14,2.59-1.03,5.14-1.79,7.65-2.29,2.02-.35,3.89-.53,5.59-.53,3.16,0,5.75,.64,7.78,1.92,2.67,1.49,4.17,3.41,4.5,5.75l.12,1.81c0,.36-.08,.75-.24,1.17-.97,2.77-1.7,4.65-2.19,5.65-.49,1-1.34,2.34-2.55,4.05-.32,.5-.49,.78-.49,.85s-.32,.57-.97,1.49c-4.94,6.96-9.35,11.54-13.24,13.74-1.21,.57-2.55,.85-4.01,.85-.24,0-.89-.04-1.94-.11-1.05-.07-2.31-.57-3.77-1.49-1.86-1.35-2.79-2.7-2.79-4.05l.12-1.6c2.51,0,3.97,.07,4.37,.21,.4,.14,.89,.39,1.46,.75,1.05,.71,1.62,1.07,1.7,1.07,.32,0,1.11-.48,2.37-1.44,1.26-.96,2.49-2.08,3.71-3.36,3.64-3.62,7.05-8.13,10.2-13.53,.73-1.28,1.26-2.25,1.58-2.93,.32-.67,.53-1.23,.61-1.65,.08-.43,.12-.96,.12-1.6,0-1.35-.08-2.31-.24-2.88-.32-1.13-2.03-1.7-5.1-1.7-2.67,0-5.22,.75-7.65,2.24-.57,.28-1.24,.64-2,1.07-.77,.43-1.5,.8-2.19,1.12-.69,.32-1.42,.69-2.19,1.12s-1.38,.78-1.82,1.07c-.45,.28-.85,.52-1.22,.69-.36,.18-.61,.27-.73,.27s-1.18,.84-3.16,2.5c-1.99,1.67-4.13,3.53-6.44,5.59-2.31,2.06-4.17,3.8-5.59,5.22-1.42,1.42-3,3.2-4.74,5.33-1.74,2.13-3.28,4.14-4.62,6.02-1.34,1.88-2.13,3.21-2.37,4-.08,.28-.26,.76-.55,1.44-.28,.68-.63,1.42-1.03,2.24-.41,.82-.83,1.83-1.28,3.04-.45,1.21-.83,2.31-1.15,3.3-.41,1.42-.69,2.58-.85,3.46-.16,.89-.24,2.08-.24,3.57,0,1.85,.18,3.36,.55,4.53,.36,1.17,.95,2.29,1.76,3.36,.57,.64,1.62,1.33,3.16,2.08,1.54,.75,3.1,1.3,4.68,1.65,1.58,.36,3.3,.53,5.16,.53,3.32,0,6.96-.53,10.93-1.6,17.9-5.18,34.66-14.27,50.29-27.27,2.59-2.27,4.62-4.15,6.08-5.65,.65-.92,1.74-2.17,3.28-3.73,.97-1.13,1.66-2.01,2.06-2.61,.4-.6,.73-.91,.97-.91s.65-.35,1.22-1.07c.57-.71,.93-1.07,1.09-1.07v.11c0,.36-.41,1.24-1.22,2.66l1.09-.96v.75c0,.28,.08,.43,.24,.43s.24,.14,.24,.43c0,.5-.45,1.53-1.34,3.09-1.14,1.78-2.61,3.59-4.43,5.43-1.82,1.85-2.84,3.07-3.04,3.67-.2,.6-1.07,1.62-2.61,3.04-4.45,4.05-8.34,7.17-11.66,9.37-3,2.13-6.42,4.3-10.27,6.5-3.85,2.2-6.3,3.69-7.35,4.47-2.59,1.63-6.4,3.36-11.42,5.17-5.02,1.81-9.34,3.04-12.94,3.67-3.61,.64-6.62,.96-9.05,.96Zm-21.74-21.2l.49-2.24c.16-1.21,.49-2.45,.97-3.73,.73-1.99,2.11-4.83,4.13-8.52,1.3-2.06,1.94-3.27,1.94-3.62l-.12-.11-.12,.11c-.81,.71-2.19,3.09-4.13,7.14-1.46,3.05-2.35,5.33-2.67,6.82-.16,.64-.32,2.02-.49,4.15Zm9.6-21.41c.16,0,.44-.25,.85-.75l.85-1.17c-.08,0-.39,.27-.91,.8-.53,.53-.79,.91-.79,1.12Zm2.06-2.66c.16,0,.49-.28,.97-.85,.49-.57,.73-.96,.73-1.17l-.49,.53c-.41,.36-.71,.66-.91,.91-.2,.25-.3,.41-.3,.48v.11Zm3.77-4.58c.08,0,.26-.11,.55-.32,.28-.21,.65-.55,1.09-1.01,.44-.46,.83-.94,1.15-1.44l.12-.21c-.08,0-.41,.28-.97,.85-.57,.57-1.03,1.03-1.4,1.38-.36,.36-.55,.6-.55,.75Zm46.41,35.05c.16,0,1.38-.67,3.64-2.02,.81-.57,1.74-1.19,2.79-1.86,1.05-.67,1.94-1.3,2.67-1.86l3.4-2.24c2.51-1.92,4.94-4.01,7.29-6.28,3.16-2.98,4.86-4.9,5.1-5.75,0-.07-.04-.11-.12-.11-.32,0-1.5,.96-3.52,2.88-2.67,2.34-4.62,4.08-5.83,5.22-1.22,1.14-1.82,1.78-1.82,1.92v.32l-.24-.11c-.24,0-.69,.21-1.34,.64-.33,.29-1.42,1.07-3.28,2.34-.41,.21-.77,.46-1.09,.75-4.29,2.91-6.44,4.49-6.44,4.74s-.2,.53-.61,.85c-.41,.32-.61,.52-.61,.59Zm26-20.99c.32,0,.73-.35,1.21-1.07,.24-.35,.55-.76,.91-1.23,.36-.46,.55-.8,.55-1.01l-1.34,1.39c-.89,1.14-1.34,1.74-1.34,1.81v.11Z"/><path class="cls-2" d="M688.2,362.14c-1.14,0-1.92-.12-2.37-.37-.45-.25-.79-.37-1.03-.37l-.37,.11c-.32,0-1.11-.39-2.37-1.17-1.26-.78-2.55-1.74-3.89-2.88-1.34-1.13-2.33-2.15-2.98-3.04-.65-.89-1.3-1.39-1.94-1.49-.65-.11-.97-.23-.97-.37,0-.21,.28-.43,.85-.64,.57-.21,.85-.43,.85-.64l-.12-.32c-.32-1.07-.49-2.17-.49-3.3,0-2.98,.97-6.39,2.92-10.23,1.29-2.41,3-5.08,5.1-7.99,2.1-2.91,3.85-5.04,5.22-6.39l2.92-2.88c2.83-3.05,4.9-4.72,6.2-5.01,.32-.07,.77-.11,1.34-.11l5.22,.85c2.67,.43,5.22,1.78,7.65,4.05,2.92,2.34,4.37,4.55,4.37,6.6,0,3.76-2.67,8.1-8.02,13-3.32,3.05-8.38,6.28-15.18,9.69-2.59,1.35-5.47,2.59-8.63,3.73-1.54,.64-2.31,1.03-2.31,1.17,.08,.64,.85,1.14,2.31,1.49,.97,.28,2.06,.43,3.28,.43l1.46-.11c7.77-.64,15.51-3.16,23.2-7.56,2.02-1.07,3.16-1.6,3.4-1.6s.57-.14,.97-.43c1.05-.64,1.58-1.05,1.58-1.22s.32-.51,.97-1.01c1.62-1.28,2.55-1.92,2.79-1.92h.12l-.73,.85,.12,.11c.16,0,1.34-.78,3.52-2.34,.89-.71,1.84-1.42,2.86-2.13,1.01-.71,1.84-1.31,2.49-1.81,2.75-1.85,5.55-4.08,8.38-6.71l7.05-6.6c5.1-4.9,7.82-7.35,8.14-7.35,0,.28-.77,1.24-2.31,2.88l-1.7,1.92c.08,0,.49-.35,1.21-1.07,1.13-.99,1.86-1.49,2.19-1.49h.12c0,.14-.18,.41-.55,.8-.36,.39-.55,.84-.55,1.33,0,.21,.02,.32,.06,.32h.18c.08,0,.2-.07,.36-.21,.16-.14,.28-.21,.36-.21,0,.14-.61,.85-1.82,2.13-.97,1-1.9,2.17-2.79,3.52-.41,.85-1.14,1.85-2.19,2.98l-1.09,1.28c-1.38,1.42-3.44,3.41-6.2,5.97-6.48,5.9-10.85,9.73-13.12,11.5-6,4.26-12.23,7.78-18.71,10.55l-1.7,.85c-1.22,.64-3.08,1.21-5.59,1.7-3.64,.78-7.01,1.17-10.08,1.17Zm-7.9-13.64v-.11c.08,0,.24-.05,.49-.16,.24-.11,.61-.3,1.09-.59,.49-.28,.95-.55,1.4-.8,.44-.25,.95-.59,1.52-1.01,3.64-1.99,6.15-3.59,7.53-4.79,0-.21,.93-.89,2.79-2.02,1.54-1.21,3.36-2.75,5.47-4.63,2.1-1.88,3.56-3.34,4.37-4.37,.81-1.03,1.46-2.24,1.94-3.62,.49-1.39,.73-2.47,.73-3.25,0-.85-.22-1.47-.67-1.86-.45-.39-1.15-.69-2.13-.91l-1.22-.11c-.97,0-2.09,.36-3.34,1.07-1.26,.71-3.14,2.45-5.65,5.22-4.7,5.11-8.28,9.87-10.75,14.27-2.47,4.4-3.71,6.96-3.71,7.67h.12Zm49.32-6.92l.85-.75c.57-.43,1.11-.89,1.64-1.39,.53-.5,.95-.92,1.28-1.28,.57-.64,.85-.99,.85-1.07-.08,0-1.05,.89-2.92,2.66-1.14,1.14-1.7,1.74-1.7,1.81Z"/></g><g><path class="cls-1" d="M247.93,192.23h2.27l-36.45,99.14h-6.61l-23.6-64.96-23.79,64.96h-6.61l-36.26-99.14h12.65l29.27,79.88-.19-.57c1.13,2.77,2.14,4.15,3.02,4.15s1.63-.76,2.27-2.27l29.84-81.2h2.27l-6.04,16.81,23.42,64.4c.76,1.51,1.57,2.27,2.45,2.27s1.7-.88,2.45-2.64l29.65-80.83Z"/><path class="cls-1" d="M325.73,255.3h-59.86c.38,9.7,3.05,17.56,8.03,23.61,4.97,6.04,11.61,9.06,19.92,9.06,5.41,0,10.48-1.73,15.2-5.19,4.72-3.46,8.09-8.03,10.1-13.69l3.4,1.89c-2.52,6.42-6.64,11.58-12.37,15.48-5.73,3.9-12.06,5.85-18.98,5.85s-13.66-1.73-19.45-5.19c-5.79-3.46-10.32-8.18-13.6-14.16-3.28-5.98-4.91-12.49-4.91-19.55s1.61-13.53,4.82-19.45c3.21-5.92,7.58-10.64,13.12-14.16,5.54-3.52,11.64-5.29,18.32-5.29s12.59,1.73,18.13,5.19c5.54,3.46,9.94,8.15,13.22,14.07,3.27,5.92,4.91,12.34,4.91,19.26v2.27Zm-12.84-2.27c0-6.42-1.04-12.43-3.12-18.03-2.08-5.6-4.91-10.04-8.5-13.31-3.59-3.27-7.52-4.91-11.8-4.91s-8.21,1.64-11.8,4.91c-3.59,3.28-6.45,7.68-8.59,13.22-2.14,5.54-3.21,11.58-3.21,18.13h47.02Z"/><path class="cls-1" d="M357.46,291.37h-12.65v-99.14h12.65v99.14Z"/><path class="cls-1" d="M395.79,291.37h-12.65v-99.14h12.65v99.14Z"/><path class="cls-1" d="M485.11,291.37h-12.65v-46.83c0-8.56-1.04-14.82-3.12-18.79-2.08-3.97-5.89-5.95-11.43-5.95-4.15,0-8.06,1.64-11.71,4.91-3.65,3.28-6.58,8.19-8.78,14.73-2.2,6.55-3.3,14.61-3.3,24.17v27.76h-12.65v-75.54h12.65v18.7c0,1.51,.31,2.33,.94,2.45,.38,0,.82-.5,1.32-1.51,4.53-13.97,12.9-20.96,25.12-20.96,8.18,0,14.13,2.49,17.85,7.46,3.71,4.97,5.63,12.31,5.76,22v47.4Z"/><path class="cls-1" d="M575.95,255.3h-59.86c.38,9.7,3.05,17.56,8.03,23.61,4.97,6.04,11.61,9.06,19.92,9.06,5.41,0,10.48-1.73,15.2-5.19,4.72-3.46,8.09-8.03,10.1-13.69l3.4,1.89c-2.52,6.42-6.64,11.58-12.37,15.48-5.73,3.9-12.06,5.85-18.98,5.85s-13.66-1.73-19.45-5.19c-5.79-3.46-10.32-8.18-13.6-14.16-3.28-5.98-4.91-12.49-4.91-19.55s1.61-13.53,4.82-19.45c3.21-5.92,7.58-10.64,13.12-14.16,5.54-3.52,11.64-5.29,18.32-5.29s12.59,1.73,18.13,5.19c5.54,3.46,9.94,8.15,13.22,14.07,3.27,5.92,4.91,12.34,4.91,19.26v2.27Zm-12.84-2.27c0-6.42-1.04-12.43-3.12-18.03-2.08-5.6-4.91-10.04-8.5-13.31-3.59-3.27-7.52-4.91-11.8-4.91s-8.21,1.64-11.8,4.91c-3.59,3.28-6.45,7.68-8.59,13.22-2.14,5.54-3.21,11.58-3.21,18.13h47.02Z"/><path class="cls-1" d="M597.28,275.32c5.54,9.7,12.27,14.54,20.21,14.54,4.78,0,8.72-1.26,11.8-3.78,3.08-2.52,4.63-5.67,4.63-9.44s-1.73-7.08-5.19-9.91c-3.46-2.83-8.66-6.01-15.58-9.54-5.29-2.89-9.44-5.32-12.46-7.27-3.02-1.95-5.6-4.25-7.74-6.89-2.14-2.64-3.21-5.6-3.21-8.88,0-6.04,2.61-10.83,7.84-14.35,5.22-3.52,11.8-5.29,19.73-5.29,13.34,0,22.79,3.9,28.33,11.71l-6.99,7.36c-.25-.38-1.2-2.17-2.83-5.38-1.64-3.21-4.06-5.88-7.27-8.03-3.21-2.14-6.89-3.21-11.05-3.21-4.53,0-8.25,1.07-11.14,3.21-2.9,2.14-4.34,5.16-4.34,9.06s1.7,7.18,5.1,9.82,8.56,5.6,15.49,8.88c5.41,2.77,9.72,5.16,12.94,7.18,3.21,2.02,5.95,4.47,8.21,7.36,2.27,2.9,3.4,6.3,3.4,10.2,0,3.65-1.26,6.99-3.78,10.01-2.52,3.02-5.95,5.41-10.29,7.18s-9.29,2.64-14.82,2.64c-6.67,0-12.46-1.01-17.37-3.02-4.91-2.01-8.62-4.78-11.14-8.31l7.55-5.85Z"/><path class="cls-1" d="M670.74,275.32c5.54,9.7,12.27,14.54,20.21,14.54,4.78,0,8.72-1.26,11.8-3.78,3.08-2.52,4.63-5.67,4.63-9.44s-1.73-7.08-5.19-9.91c-3.46-2.83-8.66-6.01-15.58-9.54-5.29-2.89-9.44-5.32-12.46-7.27-3.02-1.95-5.6-4.25-7.74-6.89-2.14-2.64-3.21-5.6-3.21-8.88,0-6.04,2.61-10.83,7.84-14.35,5.22-3.52,11.8-5.29,19.73-5.29,13.34,0,22.78,3.9,28.33,11.71l-6.99,7.36c-.25-.38-1.2-2.17-2.83-5.38-1.64-3.21-4.06-5.88-7.27-8.03-3.21-2.14-6.89-3.21-11.05-3.21-4.53,0-8.25,1.07-11.14,3.21-2.9,2.14-4.34,5.16-4.34,9.06s1.7,7.18,5.1,9.82c3.4,2.64,8.56,5.6,15.49,8.88,5.41,2.77,9.73,5.16,12.94,7.18,3.21,2.02,5.95,4.47,8.22,7.36,2.27,2.9,3.4,6.3,3.4,10.2,0,3.65-1.26,6.99-3.78,10.01-2.52,3.02-5.95,5.41-10.29,7.18-4.34,1.76-9.29,2.64-14.83,2.64-6.67,0-12.46-1.01-17.37-3.02-4.91-2.01-8.63-4.78-11.14-8.31l7.55-5.85Z"/></g></svg>