<?xml version="1.0" encoding="UTF-8"?><svg id="Layer_1" xmlns="http://www.w3.org/2000/svg" viewBox="0 0 841.89 595.28"><defs><style>.cls-1{stroke:#f5833a;}.cls-1,.cls-2,.cls-3{fill:none;stroke-miterlimit:10;}.cls-4{fill:#29589d;}.cls-2{stroke:#5982c0;}.cls-3{stroke:#29589d;stroke-width:3px;}.cls-5{fill:#231f20;}.cls-6{fill:#f5833a;}</style></defs><g><g><path class="cls-6" d="M133.29,560.96c-1.01,0-1.63-.07-1.86-.2l-.93-.31c-1.24,0-2.52-.19-3.84-.56-1.32-.37-2.29-.76-2.91-1.17l-3.49-2.24c-.93-.54-1.67-1.09-2.21-1.63-.93-.88-2.09-2.58-3.49-5.1l-.93-1.53c-.39-.41-.85-1.36-1.4-2.85-1.63-4.21-2.44-9.35-2.44-15.4v-5.2c.08-2.79,.66-6.25,1.74-10.4,.47-1.97,.7-3.16,.7-3.57,0-.47-.27-.92-.81-1.33-.54-.61-.81-1.04-.81-1.27s-.19-.56-.58-.97-.58-.98-.58-1.73c0-.47,.39-.95,1.16-1.43l5.47-2.45c1.7-3.47,2.94-5.81,3.72-7.04l.93-1.73,.35-1.12c.23-.68,1.98-3.87,5.23-9.58,.93-1.43,1.86-3.09,2.79-5,.54-.95,.87-1.43,.99-1.43s.21-.05,.29-.15c.08-.1,.12-.26,.12-.46s.13-.39,.41-.56c.27-.17,.72-.87,1.34-2.09,1.39-2.51,4.07-6.39,8.02-11.62,1.16-1.56,2.52-3.3,4.07-5.2,3.33-4.28,5.62-7.07,6.86-8.36l.12-.2c.93-.95,1.39-1.49,1.39-1.63,0-.07-.08-.1-.23-.1l-.46,.1c-.23,.07-.47,.14-.7,.2-.23,.07-.41,.14-.52,.2-.12,.07-.46,.2-1.05,.41s-1.22,.37-1.92,.51c-1.32,.34-3.01,.82-5.06,1.43-2.06,.61-3.94,1.19-5.64,1.73-1.71,.54-2.64,.87-2.79,.97-.16,.1-.52,.26-1.1,.46-.58,.2-1.28,.46-2.09,.76-.81,.31-1.67,.63-2.56,.97-.89,.34-1.61,.63-2.15,.87-.54,.24-1.03,.43-1.45,.56-.43,.14-.68,.2-.76,.2s-.78,.26-2.09,.77c-1.32,.51-2.83,1.11-4.54,1.78-1.71,.68-3.29,1.33-4.77,1.94-.93,.41-1.65,.7-2.15,.87-.51,.17-.85,.29-1.05,.36-.19,.07-.33,.1-.41,.1l-.23-.1c-.08,0-.17,.04-.29,.1-.12,.07-.31,.15-.58,.25-.27,.1-.56,.15-.87,.15-.78,0-1.36-.61-1.74-1.84-.23-.82-.46-1.22-.7-1.22h-.12c-.23,0-.41-.15-.52-.46-.12-.31-.17-1.21-.17-2.7,0-1.15,.08-1.84,.23-2.04,.23-.61,5.54-2.51,15.93-5.71,7.05-2.24,10.66-3.37,10.81-3.37s1.63-.41,4.42-1.22c1.78-.61,5.43-1.66,10.93-3.16l4.77-1.33c4.88-1.22,7.75-1.9,8.6-2.04,1.63-.47,5.46-1.33,11.51-2.55,8.06-1.63,13.26-2.62,15.58-2.96,.62-.07,1.3-.17,2.03-.31,.74-.14,1.32-.24,1.74-.31,.43-.07,1.05-.17,1.86-.31,.81-.14,1.61-.24,2.38-.31,5.12-.82,9.53-1.36,13.26-1.63l10.35-1.22,18.84-1.53,7.44-.41,10.35-.82,5.58-.1c1.01,0,1.51-.03,1.51-.1s.06-.14,.17-.2c.12-.07,.25-.1,.41-.1,.08,0,.15,.02,.23,.05,.08,.04,.15,.22,.23,.56,.08,0,.17-.08,.29-.26,.12-.17,.37-.29,.76-.36l1.63,.1c1.86,.2,2.79,.65,2.79,1.33l-.12,.31c0,.14,.02,.27,.06,.41,.04,.14,.19,.24,.46,.31,.27,.07,.41,.27,.41,.61,0,.07-.04,.15-.12,.25-.08,.1-.23,.15-.46,.15s-.35,.07-.35,.2c0,.34,.21,.61,.64,.82,.43,.2,.68,.51,.76,.92,0,.48-.12,.83-.35,1.07-.23,.24-.47,.36-.7,.36l-.23-.1h-.12c-.08,.07-.16,.14-.23,.2-.08,.07-.56,.15-1.45,.26-.89,.1-2,.19-3.31,.26l-11.28,.71c-1.94,.14-3.91,.24-5.93,.31-4.19,.27-6.59,.41-7.21,.41-1.01,0-1.51-.03-1.51-.1v-.1l.35-.61c-.08-.07-.31-.1-.7-.1s-.58,.07-.58,.2v.31c0,.34-.19,.54-.58,.61h-.7c-.16-.07-.35-.1-.58-.1-.16,0-.33,.05-.52,.15-.19,.1-.72,.2-1.57,.31-.85,.1-1.8,.17-2.85,.2-1.05,.04-2,.05-2.85,.05-.78,0-1.16-.07-1.16-.2l.58-.2c.39-.07,1.78-.27,4.19-.61l-3.02,.1c-1.78,0-2.85,.09-3.2,.26-.35,.17-.52,.39-.52,.66s-.31,.51-.93,.71c-.7,0-1.05-.17-1.05-.51v-.2c.08-.14,.33-.2,.76-.2s.64-.07,.64-.2-.17-.36-.52-.66c-.35-.31-.76-.46-1.22-.46-.23,0-.48,.02-.76,.05-.27,.04-.41,.09-.41,.15v.1c0,.07,.06,.15,.17,.26,.12,.1,.17,.19,.17,.25,0,.34-.89,.58-2.68,.71-2.09,.14-3.14,.34-3.14,.61v.61c-.08,.14-.16,.2-.23,.2-.16,0-.25-.05-.29-.15-.04-.1-.06-.26-.06-.46s-.23-.31-.7-.31-.7,.1-.7,.31,.12,.31,.35,.31,.35,.1,.35,.31c0,.14-.04,.2-.12,.2l-.47-.2h-.12c-.08,.07-.16,.15-.23,.26-.08,.1-.31,.2-.7,.31-.39,.1-.85,.19-1.39,.26-.54,.07-.97,.1-1.28,.1-.47,0-.7-.14-.7-.41s.08-.41,.23-.41h.81c.15-.07,.46-.17,.93-.31,.46-.14,.7-.27,.7-.41,0-.07-.08-.1-.23-.1-.08,0-.21,.02-.41,.05-.19,.04-.68,.1-1.45,.2-.78,.1-1.67,.2-2.67,.31-1.01,.1-1.86,.22-2.56,.36-.7,.14-1.09,.24-1.16,.31,0,.07,.12,.1,.35,.1,.31,0,.72-.03,1.22-.1,.5-.07,1.01-.13,1.51-.2,.5-.07,.95-.13,1.34-.2,.54,0,.81,.07,.81,.2,0,.61-1.12,.95-3.37,1.02-1.16,0-1.98,.1-2.44,.31-.08,.07-.39,.14-.93,.2l-4.88,.51c-.7,.2-1.59,.37-2.67,.51-2.56,.34-4.61,.65-6.16,.92l-3.14,.41c-1.71,.34-2.83,.51-3.37,.51-.23,0-.35-.03-.35-.1s.08-.24,.23-.51c.16-.27,.23-.47,.23-.61h-.12c-.08,0-.31,.34-.7,1.02-.16,.61-.6,.92-1.34,.92s-2.46,.34-5.17,1.02c-.62,.14-1.01,.2-1.16,.2s-.85,.27-2.09,.82c-.54,.27-.99,.49-1.34,.66-.35,.17-.52,.34-.52,.51s-.47,.66-1.4,1.48c-.46,.41-1.03,.94-1.69,1.58-.66,.65-1.51,1.48-2.56,2.5s-2.11,2.06-3.2,3.11c-1.09,1.05-2.33,2.5-3.72,4.33-1.71,1.97-3.1,3.71-4.19,5.2-1.55,1.9-3.22,4.15-5,6.73-3.26,4.28-5.08,6.76-5.46,7.44-.78,1.02-1.24,1.53-1.4,1.53s-.23,.04-.23,.1v.1c0,.68-.81,2.11-2.44,4.28-.31,.48-.46,.73-.46,.76,0,.04-.06,.19-.17,.46-.12,.27-.29,.58-.52,.92-.23,.34-.56,.85-.99,1.53-.43,.68-.83,1.39-1.22,2.14-.39,.75-.93,1.67-1.63,2.75-1.63,2.72-2.71,4.66-3.26,5.81l-.58,1.12c.16,0,2.25-.65,6.28-1.94,.77-.2,1.28-.34,1.51-.41,.23-.07,.5-.13,.81-.2,.31-.07,.56-.15,.76-.25,.19-.1,.7-.29,1.51-.56,.81-.27,1.76-.58,2.85-.92,4.03-1.16,6.67-2.17,7.91-3.06,.7-.41,1.2-.61,1.51-.61s.47,.22,.47,.66,.13,.66,.41,.66,.64,.58,1.1,1.73l.12,.2c0,.07-.16,.53-.47,1.38-.31,.85-.76,1.51-1.34,1.99-.58,.48-1.45,.99-2.62,1.53-1.16,.54-2.21,.95-3.14,1.22-.54,.14-.93,.31-1.16,.51-.62,.27-2.17,.82-4.65,1.63-10.16,3.4-15.62,5.51-16.4,6.32-.39,.55-1.03,1.92-1.92,4.13-.89,2.21-1.65,4.37-2.27,6.47-1.63,5.37-2.44,11.56-2.44,18.56,0,3.94,.15,6.92,.46,8.92,.31,2.01,.93,3.89,1.86,5.66l1.28,2.34,2.33,.82c1.7,.48,4.11,.71,7.21,.71,3.64,0,7.56-.92,11.74-2.75,1.71-.75,3.84-1.94,6.4-3.57l3.84-2.24c.62-.41,1.39-1.02,2.33-1.84l1.28-1.12c.15,0,.77-.47,1.86-1.43,1.08-.95,1.76-1.43,2.03-1.43s.41-.08,.41-.25,.85-1.1,2.56-2.8l13.02-12.64c2.09-2.11,3.49-3.57,4.19-4.38l5.46-6.22c2.17-2.45,4.07-4.66,5.7-6.63,.77-.95,1.51-1.82,2.21-2.6,.7-.78,1.18-1.29,1.45-1.53,.27-.24,.7-.7,1.28-1.38,.58-.68,1.18-1.39,1.8-2.14,1.86-2.24,2.91-3.47,3.14-3.67,.54-.61,.81-.98,.81-1.12s.04-.2,.12-.2,.21,.07,.41,.2c.19,.14,.29,.34,.29,.61,0,.54-.54,1.46-1.63,2.75-.31,.48-.58,.88-.81,1.22-.23,.34-.35,.58-.35,.71l.35-.31c.15-.13,.35-.41,.58-.82,.77-1.02,1.28-1.53,1.51-1.53,.08,0,.12,.1,.12,.31,0,.27-.62,1.33-1.86,3.16-3.41,4.76-6.2,8.29-8.37,10.6-.78,.88-1.78,2.24-3.02,4.08-.31,.34-.56,.53-.76,.56-.19,.04-.35,.07-.47,.1-.12,.04-.37,.15-.76,.36-1.09,.75-1.63,1.26-1.63,1.53s-.19,.58-.58,.92c-.39,.34-.95,1.02-1.69,2.04s-1.1,1.67-1.1,1.94c.08,0,.41-.32,.99-.97,.58-.65,1.2-1.39,1.86-2.24,.66-.85,1.1-1.27,1.34-1.27,.16,0,.23,.14,.23,.41,0,.2-.54,1.02-1.63,2.45-2.17,2.92-4.88,6.12-8.14,9.58-1.63,1.77-2.44,2.77-2.44,3.01s-1.1,1.5-3.31,3.77c-2.21,2.28-3.43,3.42-3.66,3.42s-1.12,.75-2.67,2.24l-3.26,2.96c-.16,.07-.39,.24-.7,.51-.85,.75-1.98,1.67-3.37,2.75l-3.49,2.96c0,.07,.04,.1,.12,.1,.62,0,1.82-.78,3.61-2.35l1.86-1.12c0,.41-.89,1.33-2.67,2.75-1.78,1.43-2.79,2.14-3.02,2.14s-.37,.03-.41,.1c-.04,.07-.06,.14-.06,.2s-.19,.24-.58,.51l-4.65,2.75c-1.63,.88-4.03,1.63-7.21,2.24l-7.91,1.43Zm-16.86-13.05l.12-.1c0-.2-.08-.53-.23-.97-.16-.44-.35-1.51-.58-3.21-.54-3.87-.81-7.04-.81-9.48,0-.68,.04-1.43,.12-2.24,.08-.82,.16-1.48,.23-1.99,.08-.51,.17-1.17,.29-1.99s.25-1.73,.41-2.75c.16-.61,.27-1.26,.35-1.94,.31-2.24,.89-4.76,1.74-7.55,.85-2.79,1.74-5.17,2.67-7.14l.35-1.02-.12-.1c-.23,0-.62,.17-1.16,.51-1.47,.95-2.21,1.62-2.21,1.99s-.23,.9-.7,1.58c-.39,.48-.66,.71-.81,.71l-.35-.31c-.23,0-.35,.34-.35,1.02l.12,1.33,.12,.51c0,.41-.21,.61-.64,.61s-.64,.55-.64,1.63c0,.34,.04,.66,.12,.97,.08,.31,.12,.49,.12,.56v.1c-.08,0-.14-.08-.17-.25-.04-.17-.1-.26-.17-.26-.16,0-.31,.61-.47,1.84l-.12,1.73c0,.41,.04,.65,.12,.71,.08,.07,.12,.14,.12,.2s-.08,.17-.23,.31c-.47,.41-.7,2.52-.7,6.32,0,2.24,.12,3.37,.35,3.37l.12-.1c.15,0,.23,.14,.23,.41,0,.2-.08,.31-.23,.31h-.23c-.08,0-.12,.31-.12,.92,0,1.7,.15,2.55,.46,2.55h.12c.15,0,.23,.17,.23,.51v1.22c-.08,0-.16-.15-.23-.46-.08-.31-.16-.46-.23-.46v.1c0,.48,.17,1.43,.52,2.85s.76,2.89,1.22,4.38c.7,2.04,1.12,3.06,1.28,3.06Zm5.58-50.98l.58-.71-.12-.1c-.23,0-.39,.14-.47,.41v.41Zm1.28,1.63c.16,0,.37-.05,.64-.15,.27-.1,.52-.2,.76-.31,.23-.1,.5-.31,.81-.61,.31-.31,.56-.65,.76-1.02,.19-.37,.58-1.05,1.16-2.04,.58-.98,1.18-2.06,1.8-3.21,4.19-7.14,6.28-11.11,6.28-11.93,0-.07-.04-.12-.12-.15-.08-.03-.12-.12-.12-.26,0-.2,.39-.95,1.16-2.24,.93-1.49,1.47-2.24,1.63-2.24s.29-.22,.41-.66c.12-.44,.68-1.44,1.69-3.01,2.25-3.6,4.23-6.49,5.93-8.67v-.1l-.58,.61c-.78,.88-1.74,2.11-2.91,3.67-1.78,2.65-2.87,3.98-3.26,3.98v-.1c0-.2,.12-.41,.35-.61s.35-.37,.35-.51l-.12-.2-.47,.2v-.1c0-.41,.16-.85,.47-1.33l.46-.71c0-.07-.04-.1-.12-.1s-.31,.24-.7,.71c-2.09,2.92-3.14,4.45-3.14,4.59,.23,0,.37-.03,.41-.1,.04-.07,.21-.17,.52-.31,.08,0,.12,.04,.12,.1l-.12,.31c-.16,.41-.43,.61-.81,.61s-1.14,.87-2.27,2.6c-1.12,1.73-1.71,2.63-1.74,2.7-.04,.07-.17,.27-.41,.61-.23,.34-.46,.71-.7,1.12-.78,1.16-1.55,2.52-2.33,4.08,.54-.68,1.08-1.26,1.63-1.73l.58-.31h.35c.08,.07,.12,.17,.12,.31l-3.14,5.61c-.08,.2-.19,.37-.35,.51-.23,.48-.49,.92-.76,1.33-.27,.41-.45,.68-.52,.82-.31,.27-.58,.68-.81,1.22-.08,.2-.19,.39-.35,.56-.16,.17-.51,.26-1.05,.26v-.51c.93-1.63,1.39-2.55,1.39-2.75-.08,0-.58,.78-1.51,2.35-.39,.68-.7,1.29-.93,1.83l-.47,1.43c.08,0,.13-.08,.17-.25,.04-.17,.17-.29,.41-.36,.15,0,.29,.04,.41,.1,.12,.07,.17,.24,.17,.51l-.35,1.33-.35,.61v.51c0,.2-.14,.37-.41,.51-.27,.14-.41,.34-.41,.61,0,.2,.12,.31,.35,.31Zm9.88-18.76v-.1c0-.34,.06-.78,.17-1.33,.12-.54,.27-1.05,.46-1.53,.19-.47,.39-.78,.58-.92,.19-.14,.33-.2,.41-.2l-.12,.51v.26c0,.1,.04,.15,.12,.15s.12,.07,.12,.2-.25,.66-.76,1.58c-.51,.92-.83,1.38-.99,1.38Zm4.42-8.26c-.16,0-.23-.07-.23-.2,0-.07,.25-.41,.76-1.02,.5-.61,.79-.92,.87-.92,0,.2-.08,.46-.23,.76-.16,.31-.23,.49-.23,.56v.1l.47-.2v.1c0,.2-.17,.39-.52,.56-.35,.17-.64,.25-.87,.25Zm3.37-5.71c.08,0,.25-.14,.52-.41,.27-.27,.48-.54,.64-.82,.15-.27,.23-.44,.23-.51v-.1c-.16,0-.43,.27-.81,.82-.39,.54-.58,.88-.58,1.02Zm1.74-2.24c.15,0,.62-.58,1.39-1.73l.93-1.53c-.23,.14-.68,.65-1.34,1.53-.66,.88-.99,1.43-.99,1.63v.1Zm6.28-23.76l2.09-.51c1.39-.34,3.08-.75,5.06-1.22,1.98-.47,3.68-.92,5.12-1.33,1.43-.41,2.19-.68,2.27-.82l.23-.2-6.98,1.84c-5.27,1.29-7.91,2.04-7.91,2.24h.12Zm3.95,4.38c.31,0,.46-.03,.46-.1l-.12-.1h-.81v.1c0,.07,.16,.1,.47,.1Zm1.05-4.08l2.33-.41c1.47-.34,2.21-.61,2.21-.82h-.12c-.39,0-1.22,.19-2.5,.56-1.28,.37-1.92,.6-1.92,.66Zm12.56-4.79c.39-.07,.62-.14,.7-.2l-.12-.2-1.4,.31c0,.07,.06,.1,.17,.1h.64Zm1.39,1.63c.15,0,.43-.08,.81-.26,.39-.17,.58-.29,.58-.36h-.23c-.16,0-.33,.04-.52,.1-.19,.07-.37,.15-.52,.26-.16,.1-.23,.19-.23,.26h.12Zm1.74-2.24c.31,0,.5-.03,.58-.1l-.12-.1h-.81l-.12,.1c0,.07,.16,.1,.47,.1Zm1.51,5.61c.08,0,.17-.08,.29-.26,.12-.17,.27-.31,.47-.41,.19-.1,.37-.19,.52-.25l.23-.1h-.12c-.16,0-.45,.04-.87,.1-.43,.07-.85,.14-1.28,.2-.43,.07-.72,.17-.87,.31l-.35,.1,.23,.1,1.16-.2c.31,0,.46,.07,.46,.2s.04,.2,.12,.2Zm-.23-4.08c0-.07-.06-.12-.17-.15-.12-.03-.21-.05-.29-.05-.23,0-.35,.07-.35,.2h.81Zm.81-1.84c1.01,0,1.94-.12,2.79-.36,.85-.24,2.11-.51,3.78-.82,1.67-.31,3.29-.61,4.88-.92,1.59-.31,2.69-.47,3.31-.51,.62-.03,1.16-.15,1.63-.36,.08-.07,4.69-.75,13.84-2.04l3.95-.61-2.79,.1c-3.33,.34-7.05,.85-11.16,1.53l-2.67,.41c-4.88,.68-9.88,1.6-15,2.75-.16,.14-.74,.27-1.74,.41-1.01,.14-1.51,.24-1.51,.31l.7,.1Zm2.44,4.79l.35-.1c0-.07-.06-.12-.17-.15-.12-.03-.21-.05-.29-.05-.16,0-.27,.04-.35,.1,0,.14,.16,.2,.47,.2Zm1.28-.41c.23,0,.35-.03,.35-.1l-.12-.1c-.39,0-.58,.04-.58,.1s.12,.1,.35,.1Zm1.05-.2c.08,0,.35-.03,.81-.1,.46-.07,.87-.14,1.22-.2,.35-.07,.56-.1,.64-.1s.17-.05,.29-.15c.12-.1,.17-.22,.17-.36,0-.2-.04-.31-.12-.31s-.17,.09-.29,.25c-.12,.17-.33,.26-.64,.26l-.81-.1c-.46,0-.81,.1-1.05,.31s-.35,.34-.35,.41,.04,.1,.12,.1Zm.35-3.67c.08,0,.27-.03,.58-.1,.31-.07,.58-.12,.81-.15,.23-.03,.35-.12,.35-.26h-.12c-.08,0-.39,.05-.93,.15-.54,.1-.81,.22-.81,.36h.12Zm3.02-.51c.23,0,.5-.03,.81-.1,.31-.07,.58-.14,.81-.2,.23-.07,.35-.14,.35-.2s-.19-.1-.58-.1c-.23,0-.51,.04-.81,.1-.31,.07-.58,.14-.81,.2-.23,.07-.35,.14-.35,.2s.19,.1,.58,.1Zm2.44,86.56c.08,0,.19-.05,.35-.15,.15-.1,.33-.32,.52-.66,.19-.34,.29-.54,.29-.61-.08,0-.31,.1-.7,.31-.39,.2-.58,.48-.58,.82,0,.2,.04,.31,.12,.31Zm.81-87.18c.16,0,.37-.08,.64-.25,.27-.17,.41-.29,.41-.36-.54,0-.87,.02-.99,.05-.12,.04-.17,.19-.17,.46,0,.07,.04,.1,.12,.1Zm1.16,82.28c.08,0,.66-.58,1.74-1.73,.47-.54,.7-.85,.7-.92-.16,0-.81,.68-1.98,2.04l-.46,.61Zm1.16-82.59c.15,0,.37-.05,.64-.15,.27-.1,.41-.22,.41-.36,0-.07-.08-.1-.23-.1s-.43,.07-.81,.2l-.58,.31,.58,.1Zm1.86,79.32l.58-.51,.23-.51c-.08,0-.17,.05-.29,.15-.12,.1-.23,.22-.35,.36-.12,.14-.17,.24-.17,.31v.2Zm.47-79.73c.15,0,.37-.07,.64-.2,.27-.14,.41-.24,.41-.31s-.19-.1-.58-.1c-.46,0-.7,.1-.7,.31s.08,.31,.23,.31Zm1.74-.31c.23,0,.35-.1,.35-.31,0-.07-.02-.12-.06-.15-.04-.03-.1-.05-.17-.05l-.23,.2c-.16,.07-.23,.14-.23,.2s.12,.1,.35,.1Zm.47,80.24c.08,0,.12-.14,.12-.41s-.04-.41-.12-.41-.12,.17-.12,.51c0,.2,.04,.31,.12,.31Zm1.16-80.55c.39,0,.58-.03,.58-.1l-.12-.1h-.93v.1c0,.07,.15,.1,.47,.1Zm2.33-.31c.31,0,.46-.03,.46-.1l-.12-.1h-.81v.1c0,.07,.16,.1,.47,.1Zm.58,75.86c.23,0,.35-.1,.35-.31,0-.14-.08-.2-.23-.2l-.23,.1c-.08,.07-.12,.17-.12,.31,0,.07,.08,.1,.23,.1Zm1.86-76.16c.31,0,.46-.1,.46-.31s-.08-.31-.23-.31c-.23,0-.43,.1-.58,.31,0,.07,.02,.14,.06,.2,.04,.07,.13,.1,.29,.1Zm4.88,62.4c-.08,0-.12-.07-.12-.2,0-.07,.58-.71,1.74-1.94,.85-.88,1.36-1.33,1.51-1.33s.23,.07,.23,.2c0,.2-.16,.68-.47,1.43-.31,.75-.52,1.12-.64,1.12h-.41c-.31,0-.66,.12-1.05,.36-.39,.24-.66,.36-.81,.36Zm.58-63.01c.23,0,.62-.03,1.16-.1,.54-.07,1.11-.15,1.69-.25,.58-.1,1.05-.2,1.39-.31,.35-.1,.52-.19,.52-.26s-.04-.15-.12-.25c-.08-.1-.35-.15-.81-.15s-.74,.09-.81,.26c-.08,.17-.78,.43-2.09,.76-.78,.14-1.16,.24-1.16,.31h.23Zm.12,3.77c.39,0,.58-.1,.58-.31s-.12-.31-.35-.31c-.31,0-.47,.07-.47,.2v.2c0,.14,.08,.2,.23,.2Zm6.51-4.49c0-.13-.23-.2-.7-.2l-.46,.1c0,.07,.23,.1,.7,.1h.47Zm-.35-1.94c.46,0,.7-.03,.7-.1s-.23-.1-.7-.1-.7,.04-.7,.1,.23,.1,.7,.1Zm6.74,1.73c.54,0,1.01-.05,1.39-.15,.39-.1,.68-.15,.87-.15s.35-.02,.46-.05c.12-.03,.29-.08,.52-.15,.23-.07,.93-.17,2.09-.31,2.79-.34,4.92-.51,6.39-.51,.93,0,1.39,.1,1.39,.31v.2c0,.07,.16,.1,.47,.1s.76-.03,1.34-.1c.58-.07,1.49-.13,2.73-.2,1.24-.07,2.54-.17,3.89-.31,1.36-.14,2.52-.24,3.49-.31,.97-.07,1.51-.13,1.63-.2,.12-.07,1.69-.27,4.71-.61l13.14-1.43,3.72-.2c-6.98,.14-17.71,.75-32.21,1.83-5.04,.41-8.95,.78-11.74,1.12-1.78,.27-2.95,.41-3.49,.41-.31,0-.46-.03-.46-.1v-.51c0-.2-.12-.31-.35-.31-.16,0-.23,.1-.23,.31v.2c0,.48-1.05,.71-3.14,.71h-1.05c-.93,0-1.39,.04-1.39,.1s.31,.14,.93,.2c.93,.07,2.09,.1,3.49,.1h1.4Zm-3.14-2.04c0-.13-.23-.2-.7-.2l-.58,.1c0,.07,.19,.1,.58,.1h.7Zm1.51,1.02c.23,0,.35-.03,.35-.1l-.12-.1h-.7c0,.14,.16,.2,.47,.2Zm.81-1.33v-.1l-.58-.1c-.31,0-.46,.04-.46,.1s.35,.1,1.05,.1Zm.81,4.38l.7-.1c1.08-.07,1.63-.2,1.63-.41,0-.14-.31-.2-.93-.2-1.09,.2-1.63,.41-1.63,.61l.23,.1Zm1.51-4.69c.39,0,.58-.03,.58-.1s-.19-.1-.58-.1c-.31,0-.47,.04-.47,.1s.15,.1,.47,.1Zm2.91-.31c.7,0,1.05-.03,1.05-.1l-.12-.1h-1.74l-.12,.1c0,.07,.31,.1,.93,.1Zm4.19-.31v-.1c0-.07-.16-.1-.46-.1l-.47,.1c0,.07,.31,.1,.93,.1Zm2.44,.92c0-.14-.23-.2-.7-.2s-.7,.04-.7,.1,.23,.1,.7,.1h.7Zm-.81,3.36c1.24,0,1.86-.17,1.86-.51,0-.07-.12-.12-.35-.15-.23-.03-.47-.05-.7-.05-.78,.14-1.16,.34-1.16,.61,0,.07,.12,.1,.35,.1Zm.93-4.59c.47,0,1.05-.02,1.74-.05,.7-.03,1.32-.12,1.86-.26l.81-.1h-.46c-.31,0-.85,.02-1.63,.05-.78,.04-1.47,.09-2.09,.15l-.93,.1c0,.07,.23,.1,.7,.1Zm8.02,4.69l.12-.1-.93-.1c-.62,0-.93,.04-.93,.1s.58,.1,1.74,.1Zm1.05-5.4c0-.14-.31-.2-.93-.2s-.93,.07-.93,.2h1.86Zm-1.28,4.59c.08,0,.19-.05,.35-.15,.15-.1,.23-.19,.23-.26s-.04-.1-.12-.1h-.23c-.39,.2-.58,.34-.58,.41s.12,.1,.35,.1Zm1.86,.82c.31,0,.46-.14,.46-.41l-.46-.1c-.23,0-.35,.07-.35,.2,0,.2,.12,.31,.35,.31Zm4.88-5.71l.12-.1c0-.07-.31-.1-.93-.1-.31,0-.56,.02-.76,.05-.19,.04-.29,.09-.29,.15h1.86Zm2.79-.2l.35-.1c0-.07-.06-.12-.17-.15-.12-.03-.25-.05-.41-.05s-.23,.07-.23,.2c0,.07,.16,.1,.47,.1Zm1.63,0l.35-.1c0-.14-.19-.2-.58-.2-.16,0-.23,.07-.23,.2,0,.07,.16,.1,.47,.1Z"/><path class="cls-6" d="M184.1,533.64h-.58c-.31-.27-.52-.53-.64-.77-.12-.24-.25-.46-.41-.66-.23-.61-.62-.99-1.16-1.12-.54-.34-.81-.54-.81-.61,0-.47,1.03-1.97,3.08-4.49,2.05-2.51,4.44-5.27,7.15-8.26,3.64-4.01,6.32-6.76,8.02-8.26,1.16-1.09,1.99-1.9,2.5-2.45,.5-.54,.79-1.04,.87-1.48,.08-.44,.12-1.17,.12-2.19,0-2.58-.08-3.89-.23-3.93-.16-.03-.23-.49-.23-1.38,0-2.31,.19-4.89,.58-7.75,.23-2.31,.62-4.89,1.16-7.75l.12-.51c0-.14-.02-.22-.06-.26-.04-.03-.1-.05-.17-.05l-.35,.1c0-.07,.12-.2,.35-.41,.23-.2,.39-.41,.47-.61v-.82l.81-1.33c-1.63,1.43-2.48,2.14-2.56,2.14s-.12-.03-.12-.1c0-.14,.13-.41,.41-.82,.27-.41,.64-.82,1.11-1.22,1.16-1.02,1.98-1.97,2.44-2.85,.47-.88,.89-1.48,1.28-1.78,.39-.31,.93-.46,1.63-.46,1.24,0,1.94,.31,2.09,.92,.08,.34,.31,.51,.7,.51h.35c.93,0,1.67,.58,2.21,1.73,.23,.34,.35,.71,.35,1.12,0,.34-.19,1.02-.58,2.04-.54,1.43-.81,2.35-.81,2.75-.08,.07-.17,.1-.29,.1s-.17,.17-.17,.51c.08,.07,.12,.17,.12,.31-.08,.2-.17,.36-.29,.46-.12,.1-.21,.27-.29,.51-.08,.24-.12,.51-.12,.82s-.06,.68-.17,1.12c-.12,.44-.25,.8-.41,1.07-.16,.27-.31,.41-.47,.41-.08,0-.12-.03-.12-.1,0-.14,.04-.27,.12-.41,.08-.14,.12-.24,.12-.31h-.12l-.23,.2c-.16,.14-.23,.27-.23,.41s.08,.32,.23,.56c.15,.24,.23,.7,.23,1.38,0,1.02-.19,2.48-.58,4.38-.08,.41-.14,.92-.17,1.53-.04,.61-.06,1.6-.06,2.96,3.72-3.26,7.94-6.56,12.67-9.89,5.43-3.87,8.56-5.81,9.42-5.81,.15,0,.35,.1,.58,.31,.23,.2,.35,.37,.35,.51,0,.07-.16,.2-.47,.41-.31,.2-.46,.34-.46,.41l1.05-.2c.23,0,.35,.07,.35,.2,0,.27-.39,.85-1.16,1.73l-2.09,2.35h-.12c-.16,.27-.29,.44-.41,.51-.12,.07-.33,.14-.64,.2,0-.07-.04-.1-.12-.1l-.12,.1c-.08,.07-.12,.17-.12,.31s-.27,.34-.81,.61c-.54,.27-.81,.46-.81,.56s-.19,.34-.58,.71c-.39,.37-.89,.76-1.51,1.17-1.39,1.02-3.45,2.69-6.16,5-3.57,3.06-6.78,5.95-9.65,8.67v4.38c.16,3.13,.47,5.54,.93,7.24,1.24,3.81,2.4,5.98,3.49,6.53,.31,.14,.77,.2,1.4,.2,2.56,0,4.88-.24,6.98-.71,1.16-.41,3.04-1.24,5.64-2.5,2.6-1.26,4.86-2.46,6.8-3.62,2.94-1.77,6.26-4.13,9.94-7.09,3.68-2.96,7.19-6.07,10.52-9.33,.54,.27,1.12,.41,1.74,.41l.7-.1-7.44,6.63c-2.71,2.38-4.07,3.64-4.07,3.77,.08,0,.46-.24,1.16-.71,1.55-1.16,2.87-2.07,3.95-2.75,.77-.41,1.47-.98,2.09-1.73,.39-.47,.89-.98,1.51-1.53,1.32-1.36,2.33-2.21,3.02-2.55l.58-.31c0,.34-.17,.63-.52,.87-.35,.24-.99,.83-1.92,1.78l-2.91,2.96c.23,0,2.25-1.63,6.05-4.89l2.33-2.14,.7,.31,.12,.92c-.7,.68-1.05,1.09-1.05,1.22h.23l.81-.51c-.08,.68-.23,1.36-.47,2.04l-.93,1.02-1.28,1.12c-1.09,1.22-2.98,3.06-5.7,5.51-2.02,1.83-3.64,3.2-4.88,4.08l-2.21,1.63c-2.09,1.84-5.21,3.94-9.36,6.32-4.15,2.38-6.73,3.57-7.73,3.57-.16,0-.27-.03-.35-.1-.08-.07-.16-.1-.23-.1-.16,0-.39,.14-.7,.41-.7,.41-1.55,.68-2.56,.82l-.7,.2-2.79,.41c-1.16,.2-2.17,.31-3.02,.31-1.32,0-2.33-.2-3.02-.61l-2.67-1.33c-.85-.41-2.09-1.29-3.72-2.65-2.87-2.31-4.85-4.62-5.93-6.93-.85-1.63-1.44-3.16-1.74-4.59-.08-.27-.16-.41-.23-.41-.16,.07-.52,.41-1.11,1.02-.58,.61-1.2,1.27-1.86,1.99-.66,.71-1.11,1.27-1.34,1.68-.23,.41-.5,.82-.81,1.22-.31,.41-.6,.77-.87,1.07-.27,.31-.76,.88-1.45,1.73-.7,.85-1.41,1.8-2.15,2.85-.74,1.05-1.43,1.99-2.09,2.8-.66,.82-1.1,1.33-1.34,1.53s-.43,.41-.58,.61c-.15,.2-.27,.34-.35,.41-.31,.68-.72,1.27-1.22,1.78-.5,.51-1.03,.83-1.57,.97-.54,.14-.93,.2-1.16,.2Zm41.74-44.25l.58-.41,.23-.41c-.08,0-.17,.05-.29,.15-.12,.1-.23,.2-.35,.31-.12,.1-.17,.17-.17,.2v.15Zm1.51-1.33c.23,0,.77-.31,1.63-.92l1.74-1.33-.12-.1c-.23,0-.58,.14-1.05,.41-.78,.48-1.16,.76-1.16,.87s-.16,.29-.46,.56c-.39,0-.58,.17-.58,.51Zm23.25,22.53l1.05-1.33h-.12c-.23,.14-.46,.37-.7,.71l-.23,.61Zm1.86,1.33c.08,0,.35-.17,.81-.51,1.24-1.22,1.86-1.87,1.86-1.94-.16,0-.58,.24-1.28,.71-.93,.75-1.39,1.33-1.39,1.73Zm3.26-3.37l.7-.41c.39-.27,.71-.54,.99-.82,.27-.27,.48-.51,.64-.71l.23-.31-1.63,1.33-.93,.92Zm3.02-2.65c.08,0,.23-.08,.46-.26,.23-.17,.43-.36,.58-.56l.23-.31c-.08,0-.23,.1-.47,.31-.23,.2-.43,.37-.58,.51l-.23,.31Z"/><path class="cls-6" d="M270.25,540.88h-1.4c-3.41,0-6.9-.95-10.46-2.85-2.33-1.22-4.07-2.58-5.23-4.08-.16-.34-.58-.95-1.28-1.84-2.79-3.19-4.19-6.66-4.19-10.4,0-1.63,.23-3.33,.7-5.1,2.4-8.9,8.49-18.39,18.25-28.45,1.78-1.77,3.62-3.48,5.52-5.15,1.9-1.66,3.56-3.02,5-4.08,1.43-1.05,2.36-1.58,2.79-1.58s1.03-.31,1.8-.92c1.32-1.02,3.22-2.02,5.7-3.01,2.48-.98,4.92-1.72,7.33-2.19,1.94-.34,3.72-.51,5.35-.51,3.02,0,5.5,.61,7.44,1.84,2.56,1.43,3.99,3.26,4.3,5.51l.12,1.73c0,.34-.08,.71-.23,1.12-.93,2.65-1.63,4.45-2.09,5.4-.46,.95-1.28,2.24-2.44,3.87-.31,.48-.46,.75-.46,.82s-.31,.54-.93,1.43c-4.73,6.66-8.95,11.05-12.67,13.15-1.16,.54-2.44,.82-3.84,.82-.23,0-.85-.03-1.86-.1-1.01-.07-2.21-.54-3.6-1.43-1.78-1.29-2.68-2.58-2.68-3.87l.12-1.53c2.4,0,3.8,.07,4.19,.2,.39,.14,.85,.37,1.39,.71,1.01,.68,1.55,1.02,1.63,1.02,.31,0,1.06-.46,2.27-1.38,1.2-.92,2.38-1.99,3.55-3.21,3.49-3.47,6.74-7.78,9.77-12.95,.7-1.22,1.2-2.16,1.51-2.8,.31-.65,.5-1.17,.58-1.58,.08-.41,.12-.92,.12-1.53,0-1.29-.08-2.21-.23-2.75-.31-1.09-1.94-1.63-4.88-1.63-2.56,0-5,.71-7.33,2.14-.54,.27-1.18,.61-1.92,1.02-.74,.41-1.44,.76-2.09,1.07-.66,.31-1.36,.66-2.09,1.07-.74,.41-1.32,.75-1.74,1.02-.43,.27-.81,.49-1.16,.66-.35,.17-.58,.26-.7,.26s-1.12,.8-3.02,2.4c-1.9,1.6-3.95,3.38-6.16,5.35-2.21,1.97-3.99,3.64-5.35,5-1.36,1.36-2.87,3.06-4.54,5.1-1.67,2.04-3.14,3.96-4.42,5.76-1.28,1.8-2.03,3.08-2.27,3.82-.08,.27-.25,.73-.52,1.38-.27,.65-.6,1.36-.99,2.14-.39,.78-.8,1.75-1.22,2.91-.43,1.16-.8,2.21-1.11,3.16-.39,1.36-.66,2.46-.81,3.31-.16,.85-.23,1.99-.23,3.42,0,1.77,.17,3.21,.52,4.33,.35,1.12,.91,2.19,1.69,3.21,.54,.61,1.55,1.27,3.02,1.99,1.47,.71,2.97,1.24,4.48,1.58,1.51,.34,3.16,.51,4.94,.51,3.18,0,6.67-.51,10.46-1.53,17.13-4.96,33.18-13.66,48.14-26.1,2.48-2.17,4.42-3.98,5.81-5.4,.62-.88,1.67-2.07,3.14-3.57,.93-1.09,1.59-1.92,1.98-2.5,.39-.58,.7-.87,.93-.87s.62-.34,1.16-1.02c.54-.68,.89-1.02,1.05-1.02v.1c0,.34-.39,1.19-1.16,2.55l1.05-.92v.71c0,.27,.08,.41,.23,.41s.23,.14,.23,.41c0,.48-.43,1.46-1.28,2.96-1.09,1.7-2.5,3.43-4.24,5.2-1.74,1.77-2.71,2.94-2.91,3.52-.19,.58-1.03,1.55-2.5,2.91-4.26,3.87-7.98,6.87-11.16,8.97-2.87,2.04-6.14,4.11-9.83,6.22-3.68,2.11-6.03,3.54-7.03,4.28-2.48,1.56-6.13,3.21-10.93,4.95-4.81,1.73-8.93,2.91-12.38,3.52-3.45,.61-6.34,.92-8.66,.92Zm-20.81-20.29l.47-2.14c.16-1.15,.46-2.34,.93-3.57,.7-1.9,2.02-4.62,3.95-8.16,1.24-1.97,1.86-3.13,1.86-3.47l-.12-.1-.12,.1c-.78,.68-2.09,2.96-3.95,6.83-1.4,2.92-2.25,5.1-2.56,6.52-.16,.61-.31,1.94-.47,3.98Zm9.19-20.49c.15,0,.43-.24,.81-.71l.81-1.12c-.08,0-.37,.26-.87,.76-.51,.51-.76,.87-.76,1.07Zm1.98-2.55c.16,0,.47-.27,.93-.82,.47-.54,.7-.92,.7-1.12l-.46,.51c-.39,.34-.68,.63-.87,.87-.19,.24-.29,.39-.29,.46v.1Zm3.61-4.38c.08,0,.25-.1,.52-.31,.27-.2,.62-.53,1.05-.97,.43-.44,.79-.9,1.1-1.38l.12-.2c-.08,0-.39,.27-.93,.82-.54,.54-.99,.99-1.34,1.33-.35,.34-.52,.58-.52,.71Zm44.42,33.54c.15,0,1.32-.65,3.49-1.94,.77-.54,1.67-1.14,2.67-1.78,1.01-.65,1.86-1.24,2.56-1.78l3.26-2.14c2.4-1.84,4.73-3.84,6.98-6.02,3.02-2.85,4.65-4.69,4.88-5.51,0-.07-.04-.1-.12-.1-.31,0-1.44,.92-3.37,2.75-2.56,2.24-4.42,3.91-5.58,5-1.16,1.09-1.74,1.7-1.74,1.84v.31l-.23-.1c-.23,0-.66,.2-1.28,.61-.31,.27-1.36,1.02-3.14,2.24-.39,.2-.74,.44-1.05,.71-4.11,2.79-6.16,4.3-6.16,4.54s-.19,.51-.58,.82c-.39,.31-.58,.49-.58,.56Zm24.88-20.09c.31,0,.7-.34,1.16-1.02,.23-.34,.52-.73,.87-1.17,.35-.44,.52-.76,.52-.97l-1.28,1.33c-.85,1.09-1.28,1.67-1.28,1.73v.1Z"/><path class="cls-6" d="M341.88,529.66c-1.09,0-1.84-.12-2.27-.36-.43-.24-.76-.36-.99-.36l-.35,.1c-.31,0-1.07-.37-2.27-1.12-1.2-.75-2.44-1.67-3.72-2.75-1.28-1.09-2.23-2.06-2.85-2.91-.62-.85-1.24-1.33-1.86-1.43-.62-.1-.93-.22-.93-.36,0-.2,.27-.41,.81-.61,.54-.2,.81-.41,.81-.61l-.12-.31c-.31-1.02-.46-2.07-.46-3.16,0-2.85,.93-6.12,2.79-9.79,1.24-2.31,2.87-4.86,4.88-7.65,2.01-2.79,3.68-4.83,5-6.12l2.79-2.75c2.71-2.92,4.69-4.52,5.93-4.79,.31-.07,.74-.1,1.28-.1l5,.82c2.56,.41,5,1.7,7.33,3.87,2.79,2.24,4.19,4.35,4.19,6.32,0,3.6-2.56,7.75-7.67,12.44-3.18,2.92-8.02,6.02-14.53,9.28-2.48,1.29-5.23,2.48-8.26,3.57-1.47,.61-2.21,.99-2.21,1.12,.08,.61,.81,1.09,2.21,1.43,.93,.27,1.98,.41,3.14,.41l1.39-.1c7.44-.61,14.84-3.02,22.21-7.24,1.94-1.02,3.02-1.53,3.26-1.53s.54-.13,.93-.41c1.01-.61,1.51-1,1.51-1.17s.31-.49,.93-.97c1.55-1.22,2.44-1.84,2.68-1.84h.12l-.7,.82,.12,.1c.16,0,1.28-.75,3.37-2.24,.85-.68,1.76-1.36,2.73-2.04,.97-.68,1.76-1.26,2.38-1.73,2.63-1.77,5.31-3.91,8.02-6.42l6.74-6.32c4.88-4.69,7.48-7.04,7.79-7.04,0,.27-.74,1.19-2.21,2.75l-1.63,1.84c.08,0,.47-.34,1.16-1.02,1.08-.95,1.78-1.43,2.09-1.43h.12c0,.14-.17,.39-.52,.76-.35,.37-.52,.8-.52,1.27,0,.2,.02,.31,.06,.31h.17c.08,0,.19-.07,.35-.2,.16-.14,.27-.2,.35-.2,0,.14-.58,.82-1.74,2.04-.93,.95-1.82,2.07-2.68,3.36-.39,.82-1.09,1.77-2.09,2.85l-1.05,1.22c-1.32,1.36-3.3,3.26-5.93,5.71-6.2,5.64-10.39,9.31-12.56,11.01-5.74,4.08-11.71,7.44-17.91,10.09l-1.63,.82c-1.16,.61-2.95,1.16-5.35,1.63-3.49,.75-6.71,1.12-9.65,1.12Zm-7.56-13.05v-.1c.08,0,.23-.05,.47-.15,.23-.1,.58-.29,1.05-.56,.47-.27,.91-.53,1.34-.76,.43-.24,.91-.56,1.45-.97,3.49-1.9,5.89-3.43,7.21-4.59,0-.2,.89-.85,2.67-1.94,1.47-1.16,3.22-2.63,5.23-4.44,2.01-1.8,3.41-3.19,4.19-4.18,.77-.98,1.39-2.14,1.86-3.47,.46-1.33,.7-2.36,.7-3.11,0-.82-.21-1.41-.64-1.78-.43-.37-1.1-.66-2.03-.87l-1.16-.1c-.93,0-2,.34-3.2,1.02-1.2,.68-3.01,2.34-5.41,5-4.5,4.89-7.93,9.45-10.29,13.66-2.36,4.22-3.55,6.66-3.55,7.34h.12Zm47.21-6.63l.81-.71c.54-.41,1.06-.85,1.57-1.33,.5-.47,.91-.88,1.22-1.22,.54-.61,.81-.95,.81-1.02-.08,0-1.01,.85-2.79,2.55-1.09,1.09-1.63,1.67-1.63,1.73Z"/><path class="cls-6" d="M429.9,568.81h-.47c-.46,0-1.05-.31-1.74-.92-.23-.07-.45-.1-.64-.1s-.51-.25-.93-.76c-.43-.51-.95-.94-1.57-1.27-.93-.41-1.39-2.07-1.39-5,0-2.72,.19-5.03,.58-6.93l1.63-7.24c1.16-4.28,2.94-9.79,5.35-16.52,1.24-3.53,2.79-7.37,4.65-11.52l2.68-6.12c4.65-10.06,8.6-18.32,11.86-24.78l1.86-3.77h-.12l-3.26,4.28c-5.27,7.07-8.88,11.83-10.81,14.27l-1.39,1.63c-.39,.68-1.32,1.8-2.79,3.37-.62,.75-1.34,1.6-2.15,2.55-.81,.95-1.61,1.92-2.38,2.91-.78,.99-1.3,1.63-1.57,1.94-.27,.31-1.57,1.92-3.9,4.84-.78,.95-1.59,1.9-2.44,2.85-.85,.95-1.61,1.87-2.27,2.75-.66,.88-1.1,1.53-1.34,1.94-.62,1.29-2.11,3.06-4.48,5.3-2.37,2.24-4.87,4.37-7.5,6.37-2.64,2.01-4.73,3.31-6.28,3.93-1.09,.41-2.52,.61-4.3,.61-.93,0-1.71-.1-2.33-.31-.62-.2-1.32-.71-2.09-1.53-.77-.82-1.49-1.73-2.15-2.75-.66-1.02-1.1-1.9-1.34-2.65-.54-1.9-.81-4.42-.81-7.55,0-2.92,.89-7.85,2.67-14.78,1.24-4.89,2.63-9.07,4.19-12.54l.81-1.84c.85-2.04,2.23-5,4.13-8.87,1.9-3.87,3.51-7.04,4.83-9.48,.62-1.43,1.98-3.7,4.07-6.83l3.26-4.69c3.41-5.37,5.46-8.55,6.16-9.53,.7-.98,2.87-3.79,6.51-8.41,5.04-6.18,11.01-11.93,17.91-17.23,1.47-1.15,2.21-1.8,2.21-1.94s.27-.31,.81-.51c.47,0,.87,.05,1.22,.15,.35,.1,.7,.24,1.05,.41,.35,.17,.52,.32,.52,.46s.08,.26,.23,.36c.15,.1,.35,.19,.58,.25,1.39,.41,2.33,.95,2.79,1.63,.47,.68,.7,1.94,.7,3.77,0,4.15-3.53,12.58-10.58,25.29-1.71,3.33-3.1,5.88-4.19,7.65-3.72,5.71-7.67,10.91-11.86,15.6-4.96,5.57-9.34,9.75-13.14,12.54-4.26,3.26-7.29,5.17-9.07,5.71-.7,.2-1.39,.95-2.09,2.24-.47,.95-.83,1.84-1.11,2.65-.27,.82-.64,1.77-1.1,2.85-.78,1.83-1.78,5.44-3.02,10.81-1.24,5.37-1.86,8.97-1.86,10.81,0,.34,.04,.65,.12,.92,.08,.75,.27,1.12,.58,1.12l.46-.1c1.7-.47,4.73-2.38,9.07-5.71,2.48-1.84,3.76-2.75,3.84-2.75,1.01,0,5.74-4.62,14.19-13.87,3.49-3.74,6.67-7.34,9.53-10.81l2.21-2.65c3.88-4.69,6.47-7.92,7.79-9.69l7.33-9.48,7.91-10.71c2.17-3.13,5.08-7.07,8.72-11.83,4.65-6.53,6.99-10.06,7.03-10.6,.04-.54,1.08-2.34,3.14-5.4,2.05-3.06,4.63-6.69,7.73-10.91,1.4-1.9,2.33-3.26,2.79-4.08,.7-1.36,1.51-2.51,2.44-3.47,.39-.47,.66-.75,.81-.82,.62,0,1.2,.2,1.74,.61,.54,.41,1.2,.75,1.98,1.02,.39,.07,.85,.31,1.4,.71,1.24,1.29,1.86,2.31,1.86,3.06,0,.14-.31,.6-.93,1.38-.62,.78-1.39,1.65-2.33,2.6-1.63,1.63-3.45,3.84-5.46,6.63-.93,1.43-1.86,2.75-2.79,3.98-.54,.61-1.67,2.11-3.37,4.49-.16,.34-.37,.71-.64,1.12-.27,.41-.52,.82-.76,1.22-.39,.95-1.12,2.11-2.21,3.47-2.33,3.26-5.66,8.97-10,17.13-2.02,3.6-3.51,6.42-4.48,8.46-.97,2.04-2.15,4.28-3.55,6.73-3.18,5.98-6.69,13.17-10.52,21.56-3.84,8.4-7.03,15.85-9.59,22.38l-6.98,21.21c-.31,1.16-.62,2.52-.93,4.08-.47,1.9-.7,3.43-.7,4.59,0,.47,.35,.87,1.05,1.17,.7,.31,1.08,.53,1.16,.66,.08,.14,.12,.31,.12,.51l-.12,.61c0,.68-.16,1.49-.47,2.45-.16,1.49-.81,2.38-1.98,2.65Zm-25.46-71.58l.93-.51c.54-.34,1.24-.82,2.09-1.43,2.09-1.29,6.39-5.3,12.91-12.03,5.19-5.23,9.46-10.91,12.79-17.03,.47-.82,1.05-1.63,1.74-2.45,.46-.54,1.24-1.77,2.33-3.67,2.33-4.21,4.38-8.26,6.16-12.13,1.94-4.55,2.91-7.44,2.91-8.67v-.2c-.31,0-1.36,.78-3.14,2.35-3.26,2.85-6.73,6.39-10.41,10.6-3.68,4.22-5.83,6.9-6.45,8.06l-.93,1.33c-2.33,3.26-4.61,6.73-6.86,10.4-6.2,10.06-9.86,16.35-10.99,18.86-1.12,2.52-1.92,4.16-2.38,4.95-.47,.78-.7,1.27-.7,1.48v.1Zm19.3,17.13c.39,0,3.14-2.99,8.26-8.97,.7-.88,1.43-1.8,2.21-2.75,.78-.95,1.4-1.77,1.86-2.45,1.94-2.51,4.26-5.37,6.98-8.56,1.01-1.09,2.13-2.51,3.37-4.28,.31-.61,.74-1.27,1.28-1.99,.54-.71,1.01-1.34,1.39-1.89,.93-1.09,1.51-2.04,1.74-2.85l.12-.92c-.23,0-.97,.95-2.21,2.85-8.53,11.49-16.01,21-22.44,28.55-.78,.75-1.4,1.44-1.86,2.09-.47,.65-.7,1.04-.7,1.17Zm1.4,42.11l.12-.1v-.71h-.12c-.08,0-.12,.14-.12,.41s.04,.41,.12,.41Zm.35-1.33l.12-.51c.08-.34,.16-.65,.23-.92,.08-.27,.12-.51,.12-.71v-.41c-.08,0-.16,.15-.23,.46-.08,.31-.16,.61-.23,.92-.08,.31-.12,.56-.12,.77,0,.27,.04,.41,.12,.41Zm.58-3.47c.08,0,.35-.71,.81-2.14l2.79-9.18c2.25-7.07,3.91-11.76,5-14.07,.85-1.63,1.28-2.65,1.28-3.06s.46-1.7,1.39-3.87c1.4-3.6,3.37-7.95,5.93-13.05l6.16-12.85c1.08-2.58,3.06-6.59,5.93-12.03,2.87-5.44,4.3-8.33,4.3-8.67v-.1c-.47,0-3.92,6.53-10.35,19.58-11.55,23.18-19.03,41.77-22.44,55.77-.54,2.18-.81,3.4-.81,3.67Zm.93,11.62c.23-.2,.35-.8,.35-1.78s.19-2.33,.58-4.03c.46-1.36,.7-2.75,.7-4.18-.47,.88-.81,1.9-1.05,3.06-.62,2.92-.93,4.93-.93,6.02,0,.61,.08,.92,.23,.92h.12Zm1.63-11.22c.08,0,.17-.03,.29-.1,.12-.07,.29-.39,.52-.97,.23-.58,.6-1.6,1.11-3.06,.5-1.46,1.03-2.96,1.57-4.49,.54-1.53,.89-2.6,1.05-3.21,.08-.27,.15-.41,.23-.41s.15,.07,.23,.2l.12,.2v-.71c0-.68,.23-1.66,.7-2.96,.62-1.63,.93-2.67,.93-3.11s.13-.78,.41-1.02c.27-.24,.48-.63,.64-1.17,.54-1.7,1.47-4.11,2.79-7.24,.39-1.02,.77-1.9,1.16-2.65,.08-.2,.13-.36,.17-.46,.04-.1,.16-.42,.35-.97,.19-.54,.44-1.16,.76-1.84,.77-1.9,1.16-2.94,1.16-3.11s.15-.39,.46-.66c.31-.27,1.12-2,2.44-5.2,1.55-3.13,2.44-5.03,2.67-5.71,.39-.34,.66-.85,.81-1.53,.23-.41,.43-.65,.58-.71l.12,.2v-.31c0-.27,1.12-2.75,3.37-7.44,2.63-5.71,4.22-8.56,4.77-8.56h.23l-.23-.82,.58,.2v-.2c0-.2,.16-.71,.47-1.53,.31-.82,.72-1.75,1.22-2.8,.5-1.05,.95-1.9,1.34-2.55,.39-.65,1.01-1.77,1.86-3.37,.85-1.6,1.67-3.11,2.44-4.54l.81-1.94v-.1c0-.34,.43-1.16,1.28-2.45l4.77-8.67,1.28-2.65v-.1c-.08,0-.39,.41-.93,1.22-1.94,2.92-3.22,4.96-3.84,6.12l-.7,1.12c-1.71,2.85-3.22,5.51-4.53,7.95l-1.86,3.26c-.85,1.77-1.38,2.74-1.57,2.91-.19,.17-.37,.58-.52,1.22-.16,.65-.39,1.14-.7,1.48-.46,.61-.7,.99-.7,1.12-.16,.61-.8,1.87-1.92,3.77-1.12,1.9-1.74,2.85-1.86,2.85s-.17,.04-.17,.1l.12,.2c0,.48-.31,1.33-.93,2.55-.39,.61-.97,1.7-1.74,3.26-1.94,4.08-3.51,7.27-4.71,9.58-1.2,2.31-1.88,3.74-2.03,4.28-.08,.2-.19,.44-.35,.71-.16,.27-.51,1.05-1.05,2.35l-2.91,6.32c-.46,.95-.7,1.45-.7,1.48,0,.04-.08,.27-.23,.71-.16,.44-.39,.97-.7,1.58l-4.07,10.5c-1.86,4.83-2.98,7.85-3.37,9.07l-1.05,3.47c-.62,1.7-1.28,4.08-1.98,7.14,0,.41-.08,.83-.23,1.27-.16,.44-.23,.73-.23,.87Zm23.6-73.11c.16,0,.54-.44,1.16-1.33,1.08-1.63,1.63-2.68,1.63-3.16v-.1c-.08,0-.58,.65-1.51,1.94-.93,1.29-1.39,2.11-1.39,2.45,0,.14,.04,.2,.12,.2Zm7.79-6.73c.08-.07,.21-.26,.41-.56,.19-.31,.41-.7,.64-1.17,.23-.47,.35-.78,.35-.92-.16,0-.51,.48-1.05,1.43-.31,.61-.46,1.02-.46,1.22h.12Z"/><path class="cls-6" d="M476.17,529.66c-1.09,0-1.84-.12-2.27-.36-.43-.24-.76-.36-.99-.36l-.35,.1c-.31,0-1.07-.37-2.27-1.12-1.2-.75-2.44-1.67-3.72-2.75-1.28-1.09-2.23-2.06-2.85-2.91-.62-.85-1.24-1.33-1.86-1.43-.62-.1-.93-.22-.93-.36,0-.2,.27-.41,.81-.61,.54-.2,.81-.41,.81-.61l-.12-.31c-.31-1.02-.46-2.07-.46-3.16,0-2.85,.93-6.12,2.79-9.79,1.24-2.31,2.87-4.86,4.88-7.65,2.01-2.79,3.68-4.83,5-6.12l2.79-2.75c2.71-2.92,4.69-4.52,5.93-4.79,.31-.07,.74-.1,1.28-.1l5,.82c2.56,.41,5,1.7,7.33,3.87,2.79,2.24,4.19,4.35,4.19,6.32,0,3.6-2.56,7.75-7.67,12.44-3.18,2.92-8.02,6.02-14.53,9.28-2.48,1.29-5.23,2.48-8.26,3.57-1.47,.61-2.21,.99-2.21,1.12,.08,.61,.81,1.09,2.21,1.43,.93,.27,1.98,.41,3.14,.41l1.39-.1c7.44-.61,14.84-3.02,22.21-7.24,1.94-1.02,3.02-1.53,3.26-1.53s.54-.13,.93-.41c1.01-.61,1.51-1,1.51-1.17s.31-.49,.93-.97c1.55-1.22,2.44-1.84,2.68-1.84h.12l-.7,.82,.12,.1c.16,0,1.28-.75,3.37-2.24,.85-.68,1.76-1.36,2.73-2.04,.97-.68,1.76-1.26,2.38-1.73,2.63-1.77,5.31-3.91,8.02-6.42l6.74-6.32c4.88-4.69,7.48-7.04,7.79-7.04,0,.27-.74,1.19-2.21,2.75l-1.63,1.84c.08,0,.47-.34,1.16-1.02,1.08-.95,1.78-1.43,2.09-1.43h.12c0,.14-.17,.39-.52,.76-.35,.37-.52,.8-.52,1.27,0,.2,.02,.31,.06,.31h.17c.08,0,.19-.07,.35-.2,.16-.14,.27-.2,.35-.2,0,.14-.58,.82-1.74,2.04-.93,.95-1.82,2.07-2.68,3.36-.39,.82-1.09,1.77-2.09,2.85l-1.05,1.22c-1.32,1.36-3.3,3.26-5.93,5.71-6.2,5.64-10.39,9.31-12.56,11.01-5.74,4.08-11.71,7.44-17.91,10.09l-1.63,.82c-1.16,.61-2.95,1.16-5.35,1.63-3.49,.75-6.71,1.12-9.65,1.12Zm-7.56-13.05v-.1c.08,0,.23-.05,.47-.15,.23-.1,.58-.29,1.05-.56,.47-.27,.91-.53,1.34-.76,.43-.24,.91-.56,1.45-.97,3.49-1.9,5.89-3.43,7.21-4.59,0-.2,.89-.85,2.67-1.94,1.47-1.16,3.22-2.63,5.23-4.44,2.01-1.8,3.41-3.19,4.19-4.18,.77-.98,1.39-2.14,1.86-3.47,.46-1.33,.7-2.36,.7-3.11,0-.82-.21-1.41-.64-1.78-.43-.37-1.1-.66-2.03-.87l-1.16-.1c-.93,0-2,.34-3.2,1.02-1.2,.68-3.01,2.34-5.41,5-4.5,4.89-7.93,9.45-10.29,13.66-2.36,4.22-3.55,6.66-3.55,7.34h.12Zm47.21-6.63l.81-.71c.54-.41,1.06-.85,1.57-1.33,.5-.47,.91-.88,1.22-1.22,.54-.61,.81-.95,.81-1.02-.08,0-1.01,.85-2.79,2.55-1.09,1.09-1.63,1.67-1.63,1.73Z"/><path class="cls-6" d="M522.57,534.25c-.31,0-.95-.37-1.92-1.12-.97-.75-1.49-1.39-1.57-1.94-.08-.54-.35-.88-.81-1.02-.93-.27-1.39-1.19-1.39-2.75s.51-3.77,1.51-6.63c.78-2.45,3.31-8.26,7.62-17.44,4.3-9.18,10.1-18.79,17.38-28.85,.23,.41,.58,.73,1.05,.97,.46,.24,.7,.6,.7,1.07s.08,.78,.23,.92c.16,.14,.25,.24,.29,.31,.04,.07,.06,.14,.06,.2l-.12,.1c0,.27,.17,.51,.52,.71s.64,.48,.87,.82c.39,.75,.58,1.36,.58,1.84,0,.27-.33,.82-.99,1.63-.66,.82-1.73,2.45-3.2,4.89-3.49,5.71-6.12,10.4-7.91,14.07-2.71,5.44-4.07,8.29-4.07,8.56,.23,0,2.05-1.87,5.47-5.61,5.35-5.78,8.26-8.67,8.72-8.67,.08-.07,.5-.41,1.28-1.02,.77-.61,2.25-2,4.42-4.18,.54-.61,1.28-1.26,2.21-1.94,2.01-1.43,3.45-2.14,4.3-2.14,1.08,0,2.33,.41,3.72,1.22,.54,.34,.83,.61,.87,.82,.04,.2,.56,.85,1.57,1.94,.62,.54,1.05,1.05,1.28,1.53,.54,1.09,1.08,4.73,1.63,10.91,.62,7.14,1.67,11.45,3.14,12.95,.31,.34,1.08,.51,2.33,.51,.77,0,1.47-.07,2.09-.2,2.71-.61,7.48-4.21,14.3-10.81,2.63-2.65,4.15-3.98,4.54-3.98,.08,0,.12-.03,.12-.1v-.2c0-.34,.77-1.33,2.33-2.96-.39,.82-.81,1.6-1.28,2.34l1.74-1.94c.46,1.22,.7,2.04,.7,2.45,0,.54-.16,1.21-.47,1.99-.31,.78-1.18,2.06-2.62,3.82-1.44,1.77-2.25,2.96-2.44,3.57-.19,.61-.51,1.11-.93,1.48-.43,.37-.66,.7-.7,.97-.04,.27-.6,.95-1.69,2.04-2.64,2.79-5.12,5.03-7.44,6.73-1.47,1.16-2.5,1.73-3.08,1.73s-.99,.09-1.22,.26c-.23,.17-.46,.25-.7,.25-.47,0-1.16-.19-2.09-.56-.93-.37-1.94-.98-3.02-1.84-1.09-.85-2.23-2.09-3.43-3.72-1.2-1.63-2.17-3.24-2.91-4.84-.74-1.6-1.32-3.28-1.74-5.05-.43-1.77-.83-4.45-1.22-8.05-.23-1.97-.45-3.65-.64-5.05-.19-1.39-.33-2.16-.41-2.29l-.35,.2c-.31,.14-.66,.34-1.05,.61-4.88,3.47-10.83,9.06-17.85,16.77-7.02,7.72-11.88,14.02-14.59,18.91-1.63,3.2-2.87,4.79-3.72,4.79Z"/><path class="cls-6" d="M605.12,540.88h-1.39c-3.41,0-6.9-.95-10.46-2.85-2.33-1.22-4.07-2.58-5.23-4.08-.15-.34-.58-.95-1.28-1.84-2.79-3.19-4.19-6.66-4.19-10.4,0-1.63,.23-3.33,.7-5.1,2.4-8.9,8.49-18.39,18.26-28.45,1.78-1.77,3.62-3.48,5.52-5.15,1.9-1.66,3.56-3.02,5-4.08,1.43-1.05,2.36-1.58,2.79-1.58s1.03-.31,1.8-.92c1.32-1.02,3.21-2.02,5.7-3.01,2.48-.98,4.92-1.72,7.33-2.19,1.94-.34,3.72-.51,5.35-.51,3.02,0,5.5,.61,7.44,1.84,2.56,1.43,3.99,3.26,4.3,5.51l.12,1.73c0,.34-.08,.71-.23,1.12-.93,2.65-1.63,4.45-2.09,5.4-.47,.95-1.28,2.24-2.44,3.87-.31,.48-.47,.75-.47,.82s-.31,.54-.93,1.43c-4.73,6.66-8.95,11.05-12.67,13.15-1.16,.54-2.44,.82-3.84,.82-.23,0-.85-.03-1.86-.1-1.01-.07-2.21-.54-3.6-1.43-1.78-1.29-2.67-2.58-2.67-3.87l.12-1.53c2.4,0,3.8,.07,4.19,.2,.39,.14,.85,.37,1.4,.71,1.01,.68,1.55,1.02,1.63,1.02,.31,0,1.06-.46,2.27-1.38,1.2-.92,2.38-1.99,3.55-3.21,3.49-3.47,6.74-7.78,9.77-12.95,.7-1.22,1.2-2.16,1.51-2.8,.31-.65,.5-1.17,.58-1.58,.08-.41,.12-.92,.12-1.53,0-1.29-.08-2.21-.23-2.75-.31-1.09-1.94-1.63-4.88-1.63-2.56,0-5,.71-7.33,2.14-.54,.27-1.18,.61-1.92,1.02-.74,.41-1.44,.76-2.09,1.07-.66,.31-1.36,.66-2.09,1.07s-1.32,.75-1.74,1.02c-.43,.27-.81,.49-1.16,.66-.35,.17-.58,.26-.7,.26s-1.12,.8-3.02,2.4c-1.9,1.6-3.95,3.38-6.16,5.35-2.21,1.97-3.99,3.64-5.35,5-1.36,1.36-2.87,3.06-4.53,5.1-1.67,2.04-3.14,3.96-4.42,5.76-1.28,1.8-2.03,3.08-2.27,3.82-.08,.27-.25,.73-.52,1.38-.27,.65-.6,1.36-.99,2.14-.39,.78-.8,1.75-1.22,2.91-.43,1.16-.8,2.21-1.1,3.16-.39,1.36-.66,2.46-.81,3.31-.15,.85-.23,1.99-.23,3.42,0,1.77,.17,3.21,.52,4.33,.35,1.12,.91,2.19,1.69,3.21,.54,.61,1.55,1.27,3.02,1.99,1.47,.71,2.96,1.24,4.48,1.58,1.51,.34,3.16,.51,4.94,.51,3.18,0,6.66-.51,10.46-1.53,17.13-4.96,33.18-13.66,48.14-26.1,2.48-2.17,4.42-3.98,5.81-5.4,.62-.88,1.67-2.07,3.14-3.57,.93-1.09,1.59-1.92,1.98-2.5,.39-.58,.7-.87,.93-.87s.62-.34,1.16-1.02c.54-.68,.89-1.02,1.05-1.02v.1c0,.34-.39,1.19-1.16,2.55l1.05-.92v.71c0,.27,.08,.41,.23,.41s.23,.14,.23,.41c0,.48-.43,1.46-1.28,2.96-1.09,1.7-2.5,3.43-4.24,5.2-1.74,1.77-2.71,2.94-2.91,3.52-.19,.58-1.03,1.55-2.5,2.91-4.26,3.87-7.98,6.87-11.16,8.97-2.87,2.04-6.14,4.11-9.83,6.22-3.68,2.11-6.03,3.54-7.03,4.28-2.48,1.56-6.12,3.21-10.93,4.95-4.81,1.73-8.94,2.91-12.38,3.52-3.45,.61-6.34,.92-8.66,.92Zm-20.81-20.29l.46-2.14c.16-1.15,.46-2.34,.93-3.57,.7-1.9,2.02-4.62,3.95-8.16,1.24-1.97,1.86-3.13,1.86-3.47l-.12-.1-.12,.1c-.78,.68-2.09,2.96-3.95,6.83-1.39,2.92-2.25,5.1-2.56,6.52-.15,.61-.31,1.94-.46,3.98Zm9.19-20.49c.15,0,.43-.24,.81-.71l.81-1.12c-.08,0-.37,.26-.87,.76-.51,.51-.76,.87-.76,1.07Zm1.98-2.55c.15,0,.46-.27,.93-.82,.46-.54,.7-.92,.7-1.12l-.47,.51c-.39,.34-.68,.63-.87,.87-.19,.24-.29,.39-.29,.46v.1Zm3.6-4.38c.08,0,.25-.1,.52-.31,.27-.2,.62-.53,1.05-.97,.43-.44,.79-.9,1.11-1.38l.12-.2c-.08,0-.39,.27-.93,.82-.54,.54-.99,.99-1.34,1.33-.35,.34-.52,.58-.52,.71Zm44.42,33.54c.16,0,1.32-.65,3.49-1.94,.77-.54,1.67-1.14,2.68-1.78,1.01-.65,1.86-1.24,2.56-1.78l3.26-2.14c2.4-1.84,4.73-3.84,6.98-6.02,3.02-2.85,4.65-4.69,4.88-5.51,0-.07-.04-.1-.12-.1-.31,0-1.44,.92-3.37,2.75-2.56,2.24-4.42,3.91-5.58,5-1.16,1.09-1.74,1.7-1.74,1.84v.31l-.23-.1c-.23,0-.66,.2-1.28,.61-.31,.27-1.36,1.02-3.14,2.24-.39,.2-.74,.44-1.05,.71-4.11,2.79-6.16,4.3-6.16,4.54s-.19,.51-.58,.82c-.39,.31-.58,.49-.58,.56Zm24.88-20.09c.31,0,.7-.34,1.16-1.02,.23-.34,.52-.73,.87-1.17,.35-.44,.52-.76,.52-.97l-1.28,1.33c-.85,1.09-1.28,1.67-1.28,1.73v.1Z"/><path class="cls-6" d="M676.74,529.66c-1.09,0-1.84-.12-2.27-.36-.43-.24-.76-.36-.99-.36l-.35,.1c-.31,0-1.07-.37-2.27-1.12-1.2-.75-2.44-1.67-3.72-2.75-1.28-1.09-2.23-2.06-2.85-2.91-.62-.85-1.24-1.33-1.86-1.43-.62-.1-.93-.22-.93-.36,0-.2,.27-.41,.81-.61,.54-.2,.81-.41,.81-.61l-.12-.31c-.31-1.02-.47-2.07-.47-3.16,0-2.85,.93-6.12,2.79-9.79,1.24-2.31,2.87-4.86,4.88-7.65,2.01-2.79,3.68-4.83,5-6.12l2.79-2.75c2.71-2.92,4.69-4.52,5.93-4.79,.31-.07,.74-.1,1.28-.1l5,.82c2.56,.41,5,1.7,7.33,3.87,2.79,2.24,4.19,4.35,4.19,6.32,0,3.6-2.56,7.75-7.68,12.44-3.18,2.92-8.02,6.02-14.53,9.28-2.48,1.29-5.23,2.48-8.26,3.57-1.47,.61-2.21,.99-2.21,1.12,.08,.61,.81,1.09,2.21,1.43,.93,.27,1.98,.41,3.14,.41l1.4-.1c7.44-.61,14.84-3.02,22.21-7.24,1.94-1.02,3.02-1.53,3.26-1.53s.54-.13,.93-.41c1.01-.61,1.51-1,1.51-1.17s.31-.49,.93-.97c1.55-1.22,2.44-1.84,2.67-1.84h.12l-.7,.82,.12,.1c.15,0,1.28-.75,3.37-2.24,.85-.68,1.76-1.36,2.73-2.04,.97-.68,1.76-1.26,2.38-1.73,2.63-1.77,5.31-3.91,8.02-6.42l6.74-6.32c4.88-4.69,7.48-7.04,7.79-7.04,0,.27-.74,1.19-2.21,2.75l-1.63,1.84c.08,0,.46-.34,1.16-1.02,1.09-.95,1.78-1.43,2.09-1.43h.12c0,.14-.17,.39-.52,.76-.35,.37-.52,.8-.52,1.27,0,.2,.02,.31,.06,.31h.17c.08,0,.19-.07,.35-.2,.15-.14,.27-.2,.35-.2,0,.14-.58,.82-1.74,2.04-.93,.95-1.82,2.07-2.67,3.36-.39,.82-1.09,1.77-2.09,2.85l-1.05,1.22c-1.32,1.36-3.3,3.26-5.93,5.71-6.2,5.64-10.39,9.31-12.56,11.01-5.74,4.08-11.71,7.44-17.91,10.09l-1.63,.82c-1.16,.61-2.95,1.16-5.35,1.63-3.49,.75-6.71,1.12-9.65,1.12Zm-7.56-13.05v-.1c.08,0,.23-.05,.46-.15,.23-.1,.58-.29,1.05-.56,.46-.27,.91-.53,1.34-.76,.43-.24,.91-.56,1.45-.97,3.49-1.9,5.89-3.43,7.21-4.59,0-.2,.89-.85,2.68-1.94,1.47-1.16,3.22-2.63,5.23-4.44,2.01-1.8,3.41-3.19,4.19-4.18,.78-.98,1.4-2.14,1.86-3.47,.47-1.33,.7-2.36,.7-3.11,0-.82-.21-1.41-.64-1.78-.43-.37-1.1-.66-2.03-.87l-1.16-.1c-.93,0-2,.34-3.2,1.02-1.2,.68-3,2.34-5.41,5-4.5,4.89-7.93,9.45-10.29,13.66-2.37,4.22-3.55,6.66-3.55,7.34h.12Zm47.21-6.63l.81-.71c.54-.41,1.07-.85,1.57-1.33,.5-.47,.91-.88,1.22-1.22,.54-.61,.81-.95,.81-1.02-.08,0-1.01,.85-2.79,2.55-1.09,1.09-1.63,1.67-1.63,1.73Z"/></g><g><path class="cls-5" d="M255.35,367.03h2.17l-34.88,94.89h-6.33l-22.59-62.18-22.77,62.18h-6.33l-34.7-94.89h12.11l28.02,76.46-.18-.54c1.09,2.65,2.05,3.98,2.89,3.98s1.56-.72,2.17-2.17l28.56-77.72h2.17l-5.78,16.09,22.41,61.64c.72,1.45,1.5,2.17,2.35,2.17s1.63-.84,2.35-2.53l28.38-77.36Z"/><path class="cls-5" d="M329.82,427.4h-57.3c.36,9.28,2.92,16.81,7.68,22.59,4.76,5.78,11.12,8.68,19.07,8.68,5.18,0,10.03-1.65,14.55-4.97,4.52-3.31,7.74-7.68,9.67-13.1l3.25,1.81c-2.41,6.15-6.36,11.09-11.84,14.82-5.49,3.74-11.54,5.6-18.17,5.6s-13.08-1.65-18.62-4.97c-5.54-3.31-9.88-7.83-13.01-13.56-3.13-5.72-4.7-11.96-4.7-18.71s1.54-12.95,4.61-18.62c3.07-5.66,7.26-10.18,12.56-13.56,5.3-3.37,11.14-5.06,17.53-5.06s12.05,1.66,17.35,4.97c5.3,3.32,9.52,7.8,12.65,13.47,3.13,5.67,4.7,11.81,4.7,18.44v2.17Zm-12.29-2.17c0-6.15-.99-11.9-2.98-17.26-1.99-5.36-4.7-9.61-8.13-12.74-3.43-3.13-7.2-4.7-11.3-4.7s-7.86,1.57-11.3,4.7c-3.43,3.13-6.18,7.35-8.22,12.65-2.05,5.3-3.07,11.09-3.07,17.35h45.01Z"/><path class="cls-5" d="M360.18,461.93h-12.11v-94.89h12.11v94.89Z"/><path class="cls-5" d="M396.87,461.93h-12.11v-94.89h12.11v94.89Z"/><path class="cls-5" d="M482.36,461.93h-12.11v-44.83c0-8.19-.99-14.19-2.98-17.98s-5.63-5.69-10.94-5.69c-3.98,0-7.71,1.57-11.21,4.7-3.5,3.13-6.3,7.83-8.4,14.1-2.11,6.27-3.16,13.98-3.16,23.14v26.57h-12.11v-72.3h12.11v17.89c0,1.45,.3,2.23,.9,2.35,.36,0,.78-.48,1.26-1.45,4.34-13.38,12.35-20.06,24.04-20.06,7.83,0,13.53,2.38,17.08,7.14,3.55,4.76,5.39,11.78,5.51,21.06v45.37Z"/><path class="cls-5" d="M569.3,427.4h-57.3c.36,9.28,2.92,16.81,7.68,22.59,4.76,5.78,11.12,8.68,19.07,8.68,5.18,0,10.03-1.65,14.55-4.97,4.52-3.31,7.74-7.68,9.67-13.1l3.25,1.81c-2.41,6.15-6.36,11.09-11.84,14.82-5.49,3.74-11.54,5.6-18.17,5.6s-13.08-1.65-18.62-4.97c-5.54-3.31-9.88-7.83-13.01-13.56-3.13-5.72-4.7-11.96-4.7-18.71s1.54-12.95,4.61-18.62c3.07-5.66,7.26-10.18,12.56-13.56,5.3-3.37,11.14-5.06,17.53-5.06s12.05,1.66,17.35,4.97c5.3,3.32,9.52,7.8,12.65,13.47,3.13,5.67,4.7,11.81,4.7,18.44v2.17Zm-12.29-2.17c0-6.15-.99-11.9-2.98-17.26-1.99-5.36-4.7-9.61-8.13-12.74-3.43-3.13-7.2-4.7-11.3-4.7s-7.86,1.57-11.3,4.7c-3.43,3.13-6.18,7.35-8.22,12.65-2.05,5.3-3.07,11.09-3.07,17.35h45.01Z"/><path class="cls-5" d="M589.72,446.56c5.3,9.28,11.75,13.92,19.34,13.92,4.58,0,8.34-1.2,11.3-3.62,2.95-2.41,4.43-5.42,4.43-9.04s-1.66-6.78-4.97-9.49c-3.32-2.71-8.29-5.75-14.91-9.13-5.06-2.77-9.04-5.09-11.93-6.96-2.89-1.87-5.36-4.07-7.41-6.6-2.05-2.53-3.07-5.36-3.07-8.5,0-5.78,2.5-10.36,7.5-13.74,5-3.37,11.3-5.06,18.89-5.06,12.77,0,21.81,3.74,27.11,11.21l-6.69,7.05c-.24-.36-1.15-2.08-2.71-5.15-1.57-3.07-3.89-5.63-6.96-7.68-3.07-2.05-6.6-3.07-10.57-3.07-4.34,0-7.89,1.03-10.66,3.07-2.77,2.05-4.16,4.94-4.16,8.68s1.63,6.87,4.88,9.4,8.19,5.36,14.82,8.5c5.18,2.65,9.31,4.94,12.38,6.87,3.07,1.93,5.69,4.28,7.86,7.05,2.17,2.77,3.25,6.03,3.25,9.76,0,3.5-1.21,6.69-3.62,9.58-2.41,2.89-5.69,5.18-9.85,6.87s-8.89,2.53-14.19,2.53c-6.39,0-11.93-.97-16.63-2.89-4.7-1.93-8.25-4.58-10.66-7.95l7.23-5.6Z"/><path class="cls-5" d="M660.03,446.56c5.3,9.28,11.75,13.92,19.34,13.92,4.58,0,8.34-1.2,11.3-3.62,2.95-2.41,4.43-5.42,4.43-9.04s-1.66-6.78-4.97-9.49c-3.32-2.71-8.29-5.75-14.91-9.13-5.06-2.77-9.04-5.09-11.93-6.96-2.89-1.87-5.36-4.07-7.41-6.6-2.05-2.53-3.07-5.36-3.07-8.5,0-5.78,2.5-10.36,7.5-13.74,5-3.37,11.3-5.06,18.89-5.06,12.77,0,21.81,3.74,27.11,11.21l-6.69,7.05c-.24-.36-1.15-2.08-2.71-5.15-1.57-3.07-3.89-5.63-6.96-7.68-3.07-2.05-6.6-3.07-10.57-3.07-4.34,0-7.89,1.03-10.66,3.07-2.77,2.05-4.16,4.94-4.16,8.68s1.63,6.87,4.88,9.4c3.25,2.53,8.19,5.36,14.82,8.5,5.18,2.65,9.31,4.94,12.38,6.87,3.07,1.93,5.69,4.28,7.86,7.05,2.17,2.77,3.25,6.03,3.25,9.76,0,3.5-1.21,6.69-3.62,9.58-2.41,2.89-5.69,5.18-9.85,6.87-4.16,1.69-8.89,2.53-14.19,2.53-6.39,0-11.93-.97-16.63-2.89-4.7-1.93-8.26-4.58-10.66-7.95l7.23-5.6Z"/></g></g><path class="cls-2" d="M449.49,50.38c-1.62,5.88-3.06,10.91-3.68,16.13-1.55,13.11,2.81,24.35,10.51,34.68,6.94,9.31,14.2,18.49,16.84,30.21,4.28,19.03-.73,35.28-15.94,47.4-15.39,12.27-32.75,13.79-50.1,4.59-17.11-9.07-25.26-24.28-23.75-43.44,2.2-27.93,15.88-50.45,35.77-69.47,8.68-8.3,18.59-14.86,30.36-20.11Zm15.75,87.44c-5.36,25.51-20.98,38.93-46.83,40.86,13.78,3.56,26.1,.92,36.34-9.08,8.94-8.72,12.38-19.5,10.48-31.78Z"/><path class="cls-4" d="M432.41,34.94c-1.62,5.88-3.06,10.91-3.68,16.13-1.55,13.11,2.81,24.35,10.51,34.68,6.94,9.31,14.2,18.49,16.84,30.21,4.28,19.03-.73,35.28-15.94,47.4-15.39,12.27-32.75,13.79-50.1,4.59-17.11-9.07-25.26-24.28-23.75-43.44,2.2-27.93,15.88-50.45,35.77-69.47,8.68-8.3,18.59-14.86,30.36-20.11Zm15.75,87.44c-5.36,25.51-20.98,38.93-46.83,40.86,13.78,3.56,26.1,.92,36.34-9.08,8.94-8.72,12.38-19.5,10.48-31.78Z"/><g><path class="cls-1" d="M412.26,263.56c0,8.6-1.28,16.9-3.64,24.73-57.19-5.13-103.48-48.12-113.61-103.72,9.88-4.02,20.7-6.23,32.03-6.23,47.07,0,85.22,38.16,85.22,85.23Z"/><path class="cls-1" d="M544.63,187.71h0c-11.49,55.11-58.63,97.11-116.21,100.82-1.99-7.21-3.05-14.81-3.05-22.66,0-47.07,38.15-85.23,85.23-85.23,12.1,0,23.61,2.52,34.02,7.07Z"/><path class="cls-1" d="M412.26,263.56c0,8.6-1.28,16.9-3.64,24.73-57.19-5.13-103.48-48.12-113.61-103.72,9.88-4.02,20.7-6.23,32.03-6.23,47.07,0,85.22,38.16,85.22,85.23Z"/><path class="cls-1" d="M544.63,187.71h0c-11.49,55.11-58.63,97.11-116.21,100.82-1.99-7.21-3.05-14.81-3.05-22.66,0-47.07,38.15-85.23,85.23-85.23,12.1,0,23.61,2.52,34.02,7.07Z"/></g><g><path class="cls-6" d="M412.26,286.22c0,8.6-1.28,16.9-3.64,24.73-57.19-5.13-103.48-48.12-113.61-103.72,9.88-4.02,20.7-6.23,32.03-6.23,47.07,0,85.22,38.16,85.22,85.23Z"/><path class="cls-6" d="M544.63,210.37h0c-11.49,55.11-58.63,97.11-116.21,100.82-1.99-7.21-3.05-14.81-3.05-22.66,0-47.07,38.15-85.23,85.23-85.23,12.1,0,23.61,2.52,34.02,7.07Z"/><path class="cls-6" d="M412.26,286.22c0,8.6-1.28,16.9-3.64,24.73-57.19-5.13-103.48-48.12-113.61-103.72,9.88-4.02,20.7-6.23,32.03-6.23,47.07,0,85.22,38.16,85.22,85.23Z"/><path class="cls-6" d="M544.63,210.37h0c-11.49,55.11-58.63,97.11-116.21,100.82-1.99-7.21-3.05-14.81-3.05-22.66,0-47.07,38.15-85.23,85.23-85.23,12.1,0,23.61,2.52,34.02,7.07Z"/></g><circle class="cls-3" cx="419.82" cy="181.2" r="154.73"/></svg>